<svg aria-roledescription="flowchart-v2" role="graphics-document document" viewBox="-8 -8 457.69793701171875 1073.0001220703125" style="max-width: 457.69793701171875px;" xmlns="http://www.w3.org/2000/svg" width="100%" id="graphDiv"><style>#graphDiv{font-family:"trebuchet ms",verdana,arial,sans-serif;font-size:16px;fill:#333;}#graphDiv .error-icon{fill:#552222;}#graphDiv .error-text{fill:#552222;stroke:#552222;}#graphDiv .edge-thickness-normal{stroke-width:2px;}#graphDiv .edge-thickness-thick{stroke-width:3.5px;}#graphDiv .edge-pattern-solid{stroke-dasharray:0;}#graphDiv .edge-pattern-dashed{stroke-dasharray:3;}#graphDiv .edge-pattern-dotted{stroke-dasharray:2;}#graphDiv .marker{fill:#333333;stroke:#333333;}#graphDiv .marker.cross{stroke:#333333;}#graphDiv svg{font-family:"trebuchet ms",verdana,arial,sans-serif;font-size:16px;}#graphDiv .label{font-family:"trebuchet ms",verdana,arial,sans-serif;color:#333;}#graphDiv .cluster-label text{fill:#333;}#graphDiv .cluster-label span,#graphDiv p{color:#333;}#graphDiv .label text,#graphDiv span,#graphDiv p{fill:#333;color:#333;}#graphDiv .node rect,#graphDiv .node circle,#graphDiv .node ellipse,#graphDiv .node polygon,#graphDiv .node path{fill:#ECECFF;stroke:#9370DB;stroke-width:1px;}#graphDiv .flowchart-label text{text-anchor:middle;}#graphDiv .node .katex path{fill:#000;stroke:#000;stroke-width:1px;}#graphDiv .node .label{text-align:center;}#graphDiv .node.clickable{cursor:pointer;}#graphDiv .arrowheadPath{fill:#333333;}#graphDiv .edgePath .path{stroke:#333333;stroke-width:2.0px;}#graphDiv .flowchart-link{stroke:#333333;fill:none;}#graphDiv .edgeLabel{background-color:#e8e8e8;text-align:center;}#graphDiv .edgeLabel rect{opacity:0.5;background-color:#e8e8e8;fill:#e8e8e8;}#graphDiv .labelBkg{background-color:rgba(232, 232, 232, 0.5);}#graphDiv .cluster rect{fill:#ffffde;stroke:#aaaa33;stroke-width:1px;}#graphDiv .cluster text{fill:#333;}#graphDiv .cluster span,#graphDiv p{color:#333;}#graphDiv div.mermaidTooltip{position:absolute;text-align:center;max-width:200px;padding:2px;font-family:"trebuchet ms",verdana,arial,sans-serif;font-size:12px;background:hsl(80, 100%, 96.2745098039%);border:1px solid #aaaa33;border-radius:2px;pointer-events:none;z-index:100;}#graphDiv .flowchartTitleText{text-anchor:middle;font-size:18px;fill:#333;}#graphDiv :root{--mermaid-font-family:"trebuchet ms",verdana,arial,sans-serif;}</style><g><marker orient="auto" markerHeight="12" markerWidth="12" markerUnits="userSpaceOnUse" refY="5" refX="6" viewBox="0 0 10 10" class="marker flowchart" id="graphDiv_flowchart-pointEnd"><path style="stroke-width: 1; stroke-dasharray: 1, 0;" class="arrowMarkerPath" d="M 0 0 L 10 5 L 0 10 z"></path></marker><marker orient="auto" markerHeight="12" markerWidth="12" markerUnits="userSpaceOnUse" refY="5" refX="4.5" viewBox="0 0 10 10" class="marker flowchart" id="graphDiv_flowchart-pointStart"><path style="stroke-width: 1; stroke-dasharray: 1, 0;" class="arrowMarkerPath" d="M 0 5 L 10 10 L 10 0 z"></path></marker><marker orient="auto" markerHeight="11" markerWidth="11" markerUnits="userSpaceOnUse" refY="5" refX="11" viewBox="0 0 10 10" class="marker flowchart" id="graphDiv_flowchart-circleEnd"><circle style="stroke-width: 1; stroke-dasharray: 1, 0;" class="arrowMarkerPath" r="5" cy="5" cx="5"></circle></marker><marker orient="auto" markerHeight="11" markerWidth="11" markerUnits="userSpaceOnUse" refY="5" refX="-1" viewBox="0 0 10 10" class="marker flowchart" id="graphDiv_flowchart-circleStart"><circle style="stroke-width: 1; stroke-dasharray: 1, 0;" class="arrowMarkerPath" r="5" cy="5" cx="5"></circle></marker><marker orient="auto" markerHeight="11" markerWidth="11" markerUnits="userSpaceOnUse" refY="5.2" refX="12" viewBox="0 0 11 11" class="marker cross flowchart" id="graphDiv_flowchart-crossEnd"><path style="stroke-width: 2; stroke-dasharray: 1, 0;" class="arrowMarkerPath" d="M 1,1 l 9,9 M 10,1 l -9,9"></path></marker><marker orient="auto" markerHeight="11" markerWidth="11" markerUnits="userSpaceOnUse" refY="5.2" refX="-1" viewBox="0 0 11 11" class="marker cross flowchart" id="graphDiv_flowchart-crossStart"><path style="stroke-width: 2; stroke-dasharray: 1, 0;" class="arrowMarkerPath" d="M 1,1 l 9,9 M 10,1 l -9,9"></path></marker><g class="root"><g class="clusters"></g><g class="edgePaths"><path marker-end="url(#graphDiv_flowchart-pointEnd)" style="fill:none;" class="edge-thickness-normal edge-pattern-solid flowchart-link LS-FDS LE-EVAL" id="L-FDS-EVAL-0" d="M262.49,37.667L262.49,43.722C262.49,49.778,262.49,61.889,262.49,73.756C262.49,85.622,262.49,97.244,262.49,103.056L262.49,108.867"></path><path marker-end="url(#graphDiv_flowchart-pointEnd)" style="fill:none;" class="edge-thickness-normal edge-pattern-solid flowchart-link LS-EVAL LE-CONCL" id="L-EVAL-CONCL-0" d="M262.49,151.833L262.49,158.528C262.49,165.222,262.49,178.611,251.72,190.951C240.95,203.291,219.411,214.582,208.641,220.227L197.872,225.873"></path><path marker-end="url(#graphDiv_flowchart-pointEnd)" style="fill:none;stroke-width:2px;stroke-dasharray:3;" class="edge-thickness-normal edge-pattern-dotted flowchart-link LS-CONCL LE-FDS" id="L-CONCL-FDS-0" d="M128.147,228.333L118.789,222.278C109.431,216.222,90.716,204.111,81.358,188.222C72,172.333,72,152.667,72,133C72,113.333,72,93.667,92.061,78.024C112.123,62.38,152.245,50.761,172.306,44.951L192.368,39.141"></path><path marker-end="url(#graphDiv_flowchart-pointEnd)" style="fill:none;" class="edge-thickness-normal edge-pattern-solid flowchart-link LS-CONCL LE-SID" id="L-CONCL-SID-0" d="M157.25,266L157.25,270.167C157.25,274.333,157.25,282.667,157.25,290.117C157.25,297.567,157.25,304.133,157.25,307.417L157.25,310.7"></path><path marker-end="url(#graphDiv_flowchart-pointEnd)" style="fill:none;" class="edge-thickness-normal edge-pattern-solid flowchart-link LS-SID LE-BUILD" id="L-SID-BUILD-0" d="M116.151,376.333L107.901,382.389C99.651,388.444,83.151,400.556,74.901,413.339C66.651,426.122,66.651,439.578,66.651,446.306L66.651,453.033"></path><path marker-end="url(#graphDiv_flowchart-pointEnd)" style="fill:none;" class="edge-thickness-normal edge-pattern-solid flowchart-link LS-SID LE-PREBURN" id="L-SID-PREBURN-0" d="M198.349,376.333L206.599,382.389C214.849,388.444,231.349,400.556,239.599,411.783C247.849,423.011,247.849,433.356,247.849,438.528L247.849,443.7"></path><path marker-end="url(#graphDiv_flowchart-pointEnd)" style="fill:none;" class="edge-thickness-normal edge-pattern-solid flowchart-link LS-PREBURN LE-EMMC" id="L-PREBURN-EMMC-0" d="M247.849,505.333L247.849,511.389C247.849,517.444,247.849,529.556,247.849,540.783C247.849,552.011,247.849,562.356,247.849,567.528L247.849,572.7"></path><path marker-end="url(#graphDiv_flowchart-pointEnd)" style="fill:none;" class="edge-thickness-normal edge-pattern-solid flowchart-link LS-EMMC LE-COPY" id="L-EMMC-COPY-0" d="M247.849,615.667L247.849,621.722C247.849,627.778,247.849,639.889,247.849,651.117C247.849,662.344,247.849,672.689,247.849,677.861L247.849,683.033"></path><path marker-end="url(#graphDiv_flowchart-pointEnd)" style="fill:none;" class="edge-thickness-normal edge-pattern-solid flowchart-link LS-COPY LE-PROD" id="L-COPY-PROD-0" d="M247.849,726L247.849,732.056C247.849,738.111,247.849,750.222,247.849,761.45C247.849,772.678,247.849,783.022,247.849,788.194L247.849,793.367"></path><path marker-end="url(#graphDiv_flowchart-pointEnd)" style="fill:none;" class="edge-thickness-normal edge-pattern-solid flowchart-link LS-FDS LE-DFM" id="L-FDS-DFM-0" d="M305.85,37.667L319.791,43.722C333.733,49.778,361.617,61.889,375.558,77.778C389.5,93.667,389.5,113.333,389.5,133C389.5,152.667,389.5,172.333,389.5,191.361C389.5,210.389,389.5,228.778,389.5,245.278C389.5,261.778,389.5,276.389,389.5,292.889C389.5,309.389,389.5,327.778,389.5,348.056C389.5,368.333,389.5,390.5,389.5,412.333C389.5,434.167,389.5,455.667,389.5,477.167C389.5,498.667,389.5,520.167,389.5,540.111C389.5,560.056,389.5,578.444,389.5,596.833C389.5,615.222,389.5,633.611,389.5,652C389.5,670.389,389.5,688.778,389.5,707.167C389.5,725.556,389.5,743.944,389.5,758.311C389.5,772.678,389.5,783.022,389.5,788.194L389.5,793.367"></path><path marker-end="url(#graphDiv_flowchart-pointEnd)" style="fill:none;stroke-width:2px;stroke-dasharray:3;" class="edge-thickness-normal edge-pattern-dotted flowchart-link LS-DFM LE-REVIEW" id="L-DFM-REVIEW-0" d="M389.5,836.333L389.5,842.389C389.5,848.444,389.5,860.556,383.155,872.089C376.811,883.623,364.122,894.58,357.777,900.058L351.433,905.536"></path><path marker-end="url(#graphDiv_flowchart-pointEnd)" style="fill:none;stroke-width:2px;stroke-dasharray:3;" class="edge-thickness-normal edge-pattern-dotted flowchart-link LS-PROD LE-REVIEW" id="L-PROD-REVIEW-0" d="M247.849,836.333L247.849,842.389C247.849,848.444,247.849,860.556,255.664,872.156C263.479,883.756,279.11,894.844,286.925,900.389L294.74,905.933"></path><path marker-end="url(#graphDiv_flowchart-pointEnd)" style="fill:none;" class="edge-thickness-normal edge-pattern-solid flowchart-link LS-REVIEW LE-ROLLBACK" id="L-REVIEW-ROLLBACK-0" d="M325.609,946.667L325.609,952.722C325.609,958.778,325.609,970.889,325.609,982.117C325.609,993.344,325.609,1003.689,325.609,1008.861L325.609,1014.033"></path></g><g class="edgeLabels"><g transform="translate(262.48958587646484, 74.00000190734863)" class="edgeLabel"><g transform="translate(-56, -11.333333969116211)" class="label"><foreignObject height="22.666667938232422" width="112"><div style="display: inline-block; white-space: nowrap;" xmlns="http://www.w3.org/1999/xhtml"><span class="edgeLabel">二资源切换评估</span></div></foreignObject></g></g><g transform="translate(262.48958587646484, 192.0000057220459)" class="edgeLabel"><g transform="translate(-16, -11.333333969116211)" class="label"><foreignObject height="22.666667938232422" width="32"><div style="display: inline-block; white-space: nowrap;" xmlns="http://www.w3.org/1999/xhtml"><span class="edgeLabel">输出</span></div></foreignObject></g></g><g transform="translate(72, 133.00000381469727)" class="edgeLabel"><g transform="translate(-72, -22.666667938232422)" class="label"><foreignObject height="45.333335876464844" width="144"><div style="display: inline-block; white-space: nowrap;" xmlns="http://www.w3.org/1999/xhtml"><span class="edgeLabel">反向更新FDS<br>（若功能定义变化）</span></div></foreignObject></g></g><g class="edgeLabel"><g transform="translate(0, 0)" class="label"><foreignObject height="0" width="0"><div style="display: inline-block; white-space: nowrap;" xmlns="http://www.w3.org/1999/xhtml"><span class="edgeLabel"></span></div></foreignObject></g></g><g transform="translate(66.65103912353516, 412.6666736602783)" class="edgeLabel"><g transform="translate(-40, -11.333333969116211)" class="label"><foreignObject height="22.666667938232422" width="80"><div style="display: inline-block; white-space: nowrap;" xmlns="http://www.w3.org/1999/xhtml"><span class="edgeLabel">编译入版本</span></div></foreignObject></g></g><g transform="translate(247.84896087646484, 412.6666736602783)" class="edgeLabel"><g transform="translate(-53.69791793823242, -11.333333969116211)" class="label"><foreignObject height="22.666667938232422" width="107.39583587646484"><div style="display: inline-block; white-space: nowrap;" xmlns="http://www.w3.org/1999/xhtml"><span class="edgeLabel">hidSid编码变化</span></div></foreignObject></g></g><g transform="translate(247.84896087646484, 541.6666736602783)" class="edgeLabel"><g transform="translate(-66, -11.333333969116211)" class="label"><foreignObject height="22.666667938232422" width="132"><div style="display: inline-block; white-space: nowrap;" xmlns="http://www.w3.org/1999/xhtml"><span class="edgeLabel">buildEmmc.sh编译</span></div></foreignObject></g></g><g transform="translate(247.84896087646484, 652.0000095367432)" class="edgeLabel"><g transform="translate(-32, -11.333333969116211)" class="label"><foreignObject height="22.666667938232422" width="64"><div style="display: inline-block; white-space: nowrap;" xmlns="http://www.w3.org/1999/xhtml"><span class="edgeLabel">工厂抄写</span></div></foreignObject></g></g><g transform="translate(247.84896087646484, 762.333345413208)" class="edgeLabel"><g transform="translate(-32, -11.333333969116211)" class="label"><foreignObject height="22.666667938232422" width="64"><div style="display: inline-block; white-space: nowrap;" xmlns="http://www.w3.org/1999/xhtml"><span class="edgeLabel">生产测试</span></div></foreignObject></g></g><g transform="translate(389.50000381469727, 412.6666736602783)" class="edgeLabel"><g transform="translate(-30.78125, -11.333333969116211)" class="label"><foreignObject height="22.666667938232422" width="61.5625"><div style="display: inline-block; white-space: nowrap;" xmlns="http://www.w3.org/1999/xhtml"><span class="edgeLabel">DFM测试</span></div></foreignObject></g></g><g transform="translate(389.50000381469727, 872.6666812896729)" class="edgeLabel"><g transform="translate(-52.19791793823242, -11.333333969116211)" class="label"><foreignObject height="22.666667938232422" width="104.39583587646484"><div style="display: inline-block; white-space: nowrap;" xmlns="http://www.w3.org/1999/xhtml"><span class="edgeLabel">问题评审/闭环</span></div></foreignObject></g></g><g class="edgeLabel"><g transform="translate(0, 0)" class="label"><foreignObject height="0" width="0"><div style="display: inline-block; white-space: nowrap;" xmlns="http://www.w3.org/1999/xhtml"><span class="edgeLabel"></span></div></foreignObject></g></g><g transform="translate(325.60937881469727, 983.0000171661377)" class="edgeLabel"><g transform="translate(-32, -11.333333969116211)" class="label"><foreignObject height="22.666667938232422" width="64"><div style="display: inline-block; white-space: nowrap;" xmlns="http://www.w3.org/1999/xhtml"><span class="edgeLabel">严重问题</span></div></foreignObject></g></g></g><g class="nodes"><g transform="translate(262.48958587646484, 18.83333396911621)" data-id="FDS" data-node="true" id="flowchart-FDS-32" class="node default default flowchart-label"><rect height="37.66666793823242" width="136.9166717529297" y="-18.83333396911621" x="-68.45833587646484" ry="0" rx="0" style="fill:#e1f5fe;stroke:#01579b;stroke-width:2px;" class="basic label-container"></rect><g transform="translate(-60.958335876464844, -11.333333969116211)" style="" class="label"><rect></rect><foreignObject height="22.666667938232422" width="121.91667175292969"><div style="display: inline-block; white-space: nowrap;" xmlns="http://www.w3.org/1999/xhtml"><span class="nodeLabel">FDS（功能定义）</span></div></foreignObject></g></g><g transform="translate(262.48958587646484, 133.00000381469727)" data-id="EVAL" data-node="true" id="flowchart-EVAL-34" class="node default default flowchart-label"><rect height="37.66666793823242" width="127" y="-18.83333396911621" x="-63.5" ry="0" rx="0" style="fill:#fff3e0;stroke:#e65100;stroke-width:2px;" class="basic label-container"></rect><g transform="translate(-56, -11.333333969116211)" style="" class="label"><rect></rect><foreignObject height="22.666667938232422" width="112"><div style="display: inline-block; white-space: nowrap;" xmlns="http://www.w3.org/1999/xhtml"><span class="nodeLabel">二资源切换评估</span></div></foreignObject></g></g><g transform="translate(157.25, 247.16667366027832)" data-id="CONCL" data-node="true" id="flowchart-CONCL-36" class="node default default flowchart-label"><rect height="37.66666793823242" width="241.0416717529297" y="-18.83333396911621" x="-120.52083587646484" ry="0" rx="0" style="fill:#fff3e0;stroke:#e65100;stroke-width:2px;" class="basic label-container"></rect><g transform="translate(-113.02083587646484, -11.333333969116211)" style="" class="label"><rect></rect><foreignObject height="22.666667938232422" width="226.0416717529297"><div style="display: inline-block; white-space: nowrap;" xmlns="http://www.w3.org/1999/xhtml"><span class="nodeLabel">方案评审结论 / 产品配置差异表</span></div></foreignObject></g></g><g transform="translate(157.25, 346.1666736602783)" data-id="SID" data-node="true" id="flowchart-SID-40" class="node default default flowchart-label"><rect height="60.333335876464844" width="171.4375" y="-30.166667938232422" x="-85.71875" ry="0" rx="0" style="" class="basic label-container"></rect><g transform="translate(-78.21875, -22.666667938232422)" style="" class="label"><rect></rect><foreignObject height="45.333335876464844" width="156.4375"><div style="display: inline-block; white-space: nowrap;" xmlns="http://www.w3.org/1999/xhtml"><span class="nodeLabel">SID配置变更<br>（tclconfig + tvcust）</span></div></foreignObject></g></g><g transform="translate(66.65103912353516, 477.1666736602783)" data-id="BUILD" data-node="true" id="flowchart-BUILD-42" class="node default default flowchart-label"><rect height="37.66666793823242" width="95" y="-18.83333396911621" x="-47.5" ry="0" rx="0" style="" class="basic label-container"></rect><g transform="translate(-40, -11.333333969116211)" style="" class="label"><rect></rect><foreignObject height="22.666667938232422" width="80"><div style="display: inline-block; white-space: nowrap;" xmlns="http://www.w3.org/1999/xhtml"><span class="nodeLabel">编译入版本</span></div></foreignObject></g></g><g transform="translate(247.84896087646484, 477.1666736602783)" data-id="PREBURN" data-node="true" id="flowchart-PREBURN-44" class="node default default flowchart-label"><rect height="56.333335876464844" width="167.39584350585938" y="-28.166667938232422" x="-83.69792175292969" ry="0" rx="0" style="" class="basic label-container"></rect><g transform="translate(-76.19792175292969, -20.666667938232422)" style="" class="label"><rect></rect><foreignObject height="41.333335876464844" width="152.39584350585938"><div style="display: inline-block; white-space: nowrap;" xmlns="http://www.w3.org/1999/xhtml"><span class="nodeLabel">preburn_config.json<br>（新增/拆分配置组）</span></div></foreignObject></g></g><g transform="translate(247.84896087646484, 596.8333415985107)" data-id="EMMC" data-node="true" id="flowchart-EMMC-46" class="node default default flowchart-label"><rect height="37.66666793823242" width="88" y="-18.83333396911621" x="-44" ry="0" rx="0" style="" class="basic label-container"></rect><g transform="translate(-36.5, -11.333333969116211)" style="" class="label"><rect></rect><foreignObject height="22.666667938232422" width="73"><div style="display: inline-block; white-space: nowrap;" xmlns="http://www.w3.org/1999/xhtml"><span class="nodeLabel">eMMC镜像</span></div></foreignObject></g></g><g transform="translate(247.84896087646484, 707.1666774749756)" data-id="COPY" data-node="true" id="flowchart-COPY-48" class="node default default flowchart-label"><rect height="37.66666793823242" width="79" y="-18.83333396911621" x="-39.5" ry="0" rx="0" style="" class="basic label-container"></rect><g transform="translate(-32, -11.333333969116211)" style="" class="label"><rect></rect><foreignObject height="22.666667938232422" width="64"><div style="display: inline-block; white-space: nowrap;" xmlns="http://www.w3.org/1999/xhtml"><span class="nodeLabel">工厂抄写</span></div></foreignObject></g></g><g transform="translate(247.84896087646484, 817.5000133514404)" data-id="PROD" data-node="true" id="flowchart-PROD-50" class="node default default flowchart-label"><rect height="37.66666793823242" width="79" y="-18.83333396911621" x="-39.5" ry="0" rx="0" style="" class="basic label-container"></rect><g transform="translate(-32, -11.333333969116211)" style="" class="label"><rect></rect><foreignObject height="22.666667938232422" width="64"><div style="display: inline-block; white-space: nowrap;" xmlns="http://www.w3.org/1999/xhtml"><span class="nodeLabel">生产测试</span></div></foreignObject></g></g><g transform="translate(389.50000381469727, 817.5000133514404)" data-id="DFM" data-node="true" id="flowchart-DFM-52" class="node default default flowchart-label"><rect height="37.66666793823242" width="76.5625" y="-18.83333396911621" x="-38.28125" ry="0" rx="0" style="" class="basic label-container"></rect><g transform="translate(-30.78125, -11.333333969116211)" style="" class="label"><rect></rect><foreignObject height="22.666667938232422" width="61.5625"><div style="display: inline-block; white-space: nowrap;" xmlns="http://www.w3.org/1999/xhtml"><span class="nodeLabel">DFM测试</span></div></foreignObject></g></g><g transform="translate(325.60937881469727, 927.8333492279053)" data-id="REVIEW" data-node="true" id="flowchart-REVIEW-54" class="node default default flowchart-label"><rect height="37.66666793823242" width="119.39583587646484" y="-18.83333396911621" x="-59.69791793823242" ry="0" rx="0" style="fill:#fce4ec;stroke:#880e4f;stroke-width:2px;" class="basic label-container"></rect><g transform="translate(-52.19791793823242, -11.333333969116211)" style="" class="label"><rect></rect><foreignObject height="22.666667938232422" width="104.39583587646484"><div style="display: inline-block; white-space: nowrap;" xmlns="http://www.w3.org/1999/xhtml"><span class="nodeLabel">问题评审/闭环</span></div></foreignObject></g></g><g transform="translate(325.60937881469727, 1038.1666851043701)" data-id="ROLLBACK" data-node="true" id="flowchart-ROLLBACK-58" class="node default default flowchart-label"><rect height="37.66666793823242" width="143" y="-18.83333396911621" x="-71.5" ry="0" rx="0" style="fill:#ffebee;stroke:#b71c1c;stroke-width:2px;" class="basic label-container"></rect><g transform="translate(-64, -11.333333969116211)" style="" class="label"><rect></rect><foreignObject height="22.666667938232422" width="128"><div style="display: inline-block; white-space: nowrap;" xmlns="http://www.w3.org/1999/xhtml"><span class="nodeLabel">回滚至主资源方案</span></div></foreignObject></g></g></g></g></g></svg>