<svg aria-roledescription="flowchart-v2" role="graphics-document document" viewBox="-8 -8 2471.302001953125 1927.3333740234375" style="max-width: 2471.302001953125px;" xmlns="http://www.w3.org/2000/svg" width="100%" id="graphDiv"><style>#graphDiv{font-family:"trebuchet ms",verdana,arial,sans-serif;font-size:16px;fill:#333;}#graphDiv .error-icon{fill:#552222;}#graphDiv .error-text{fill:#552222;stroke:#552222;}#graphDiv .edge-thickness-normal{stroke-width:2px;}#graphDiv .edge-thickness-thick{stroke-width:3.5px;}#graphDiv .edge-pattern-solid{stroke-dasharray:0;}#graphDiv .edge-pattern-dashed{stroke-dasharray:3;}#graphDiv .edge-pattern-dotted{stroke-dasharray:2;}#graphDiv .marker{fill:#333333;stroke:#333333;}#graphDiv .marker.cross{stroke:#333333;}#graphDiv svg{font-family:"trebuchet ms",verdana,arial,sans-serif;font-size:16px;}#graphDiv .label{font-family:"trebuchet ms",verdana,arial,sans-serif;color:#333;}#graphDiv .cluster-label text{fill:#333;}#graphDiv .cluster-label span,#graphDiv p{color:#333;}#graphDiv .label text,#graphDiv span,#graphDiv p{fill:#333;color:#333;}#graphDiv .node rect,#graphDiv .node circle,#graphDiv .node ellipse,#graphDiv .node polygon,#graphDiv .node path{fill:#ECECFF;stroke:#9370DB;stroke-width:1px;}#graphDiv .flowchart-label text{text-anchor:middle;}#graphDiv .node .katex path{fill:#000;stroke:#000;stroke-width:1px;}#graphDiv .node .label{text-align:center;}#graphDiv .node.clickable{cursor:pointer;}#graphDiv .arrowheadPath{fill:#333333;}#graphDiv .edgePath .path{stroke:#333333;stroke-width:2.0px;}#graphDiv .flowchart-link{stroke:#333333;fill:none;}#graphDiv .edgeLabel{background-color:#e8e8e8;text-align:center;}#graphDiv .edgeLabel rect{opacity:0.5;background-color:#e8e8e8;fill:#e8e8e8;}#graphDiv .labelBkg{background-color:rgba(232, 232, 232, 0.5);}#graphDiv .cluster rect{fill:#ffffde;stroke:#aaaa33;stroke-width:1px;}#graphDiv .cluster text{fill:#333;}#graphDiv .cluster span,#graphDiv p{color:#333;}#graphDiv div.mermaidTooltip{position:absolute;text-align:center;max-width:200px;padding:2px;font-family:"trebuchet ms",verdana,arial,sans-serif;font-size:12px;background:hsl(80, 100%, 96.2745098039%);border:1px solid #aaaa33;border-radius:2px;pointer-events:none;z-index:100;}#graphDiv .flowchartTitleText{text-anchor:middle;font-size:18px;fill:#333;}#graphDiv :root{--mermaid-font-family:"trebuchet ms",verdana,arial,sans-serif;}</style><g><marker orient="auto" markerHeight="12" markerWidth="12" markerUnits="userSpaceOnUse" refY="5" refX="6" viewBox="0 0 10 10" class="marker flowchart" id="graphDiv_flowchart-pointEnd"><path style="stroke-width: 1; stroke-dasharray: 1, 0;" class="arrowMarkerPath" d="M 0 0 L 10 5 L 0 10 z"></path></marker><marker orient="auto" markerHeight="12" markerWidth="12" markerUnits="userSpaceOnUse" refY="5" refX="4.5" viewBox="0 0 10 10" class="marker flowchart" id="graphDiv_flowchart-pointStart"><path style="stroke-width: 1; stroke-dasharray: 1, 0;" class="arrowMarkerPath" d="M 0 5 L 10 10 L 10 0 z"></path></marker><marker orient="auto" markerHeight="11" markerWidth="11" markerUnits="userSpaceOnUse" refY="5" refX="11" viewBox="0 0 10 10" class="marker flowchart" id="graphDiv_flowchart-circleEnd"><circle style="stroke-width: 1; stroke-dasharray: 1, 0;" class="arrowMarkerPath" r="5" cy="5" cx="5"></circle></marker><marker orient="auto" markerHeight="11" markerWidth="11" markerUnits="userSpaceOnUse" refY="5" refX="-1" viewBox="0 0 10 10" class="marker flowchart" id="graphDiv_flowchart-circleStart"><circle style="stroke-width: 1; stroke-dasharray: 1, 0;" class="arrowMarkerPath" r="5" cy="5" cx="5"></circle></marker><marker orient="auto" markerHeight="11" markerWidth="11" markerUnits="userSpaceOnUse" refY="5.2" refX="12" viewBox="0 0 11 11" class="marker cross flowchart" id="graphDiv_flowchart-crossEnd"><path style="stroke-width: 2; stroke-dasharray: 1, 0;" class="arrowMarkerPath" d="M 1,1 l 9,9 M 10,1 l -9,9"></path></marker><marker orient="auto" markerHeight="11" markerWidth="11" markerUnits="userSpaceOnUse" refY="5.2" refX="-1" viewBox="0 0 11 11" class="marker cross flowchart" id="graphDiv_flowchart-crossStart"><path style="stroke-width: 2; stroke-dasharray: 1, 0;" class="arrowMarkerPath" d="M 1,1 l 9,9 M 10,1 l -9,9"></path></marker><g class="root"><g class="clusters"><g id="S6" class="cluster default flowchart-label"><rect height="426.3333320617676" width="505.44792556762695" y="565.0000076293945" x="1949.854175567627" ry="0" rx="0" style=""></rect><g transform="translate(2121.0260524749756, 565.0000076293945)" class="cluster-label"><foreignObject height="22.666667938232422" width="163.1041717529297"><div style="display: inline-block; white-space: nowrap;" xmlns="http://www.w3.org/1999/xhtml"><span class="nodeLabel">6. 迭代验证与版本管理</span></div></foreignObject></g></g><g id="S5" class="cluster default flowchart-label"><rect height="308.3333320617676" width="2210.635429382324" y="1603.0000038146973" x="29.494792938232422" ry="0" rx="0" style=""></rect><g transform="translate(1093.2604217529297, 1603.0000038146973)" class="cluster-label"><foreignObject height="22.666667938232422" width="83.10417175292969"><div style="display: inline-block; white-space: nowrap;" xmlns="http://www.w3.org/1999/xhtml"><span class="nodeLabel">5. 配置校验</span></div></foreignObject></g></g><g id="S4" class="cluster default flowchart-label"><rect height="110.33333206176758" width="1827.6458435058594" y="1442.6666717529297" x="0" ry="0" rx="0" style=""></rect><g transform="translate(792.2708358764648, 1442.6666717529297)" class="cluster-label"><foreignObject height="22.666667938232422" width="243.1041717529297"><div style="display: inline-block; white-space: nowrap;" xmlns="http://www.w3.org/1999/xhtml"><span class="nodeLabel">4. 重点考虑因素（最少最全原则）</span></div></foreignObject></g></g><g id="S3" class="cluster default flowchart-label"><rect height="621.9999961853027" width="1885.755214691162" y="748.0000076293945" x="29.494792938232422" ry="0" rx="0" style=""></rect><g transform="translate(910.6328144073486, 748.0000076293945)" class="cluster-label"><foreignObject height="22.666667938232422" width="123.47917175292969"><div style="display: inline-block; white-space: nowrap;" xmlns="http://www.w3.org/1999/xhtml"><span class="nodeLabel">3. 配置创建/修改</span></div></foreignObject></g></g><g id="S2" class="cluster default flowchart-label"><rect height="427.3333396911621" width="500.8072929382324" y="270.6666679382324" x="981.5833511352539" ry="0" rx="0" style=""></rect><g transform="translate(1174.4349117279053, 270.6666679382324)" class="cluster-label"><foreignObject height="22.666667938232422" width="115.10417175292969"><div style="display: inline-block; white-space: nowrap;" xmlns="http://www.w3.org/1999/xhtml"><span class="nodeLabel">2. 配置策略选择</span></div></foreignObject></g></g><g id="S1" class="cluster default flowchart-label"><rect height="133" width="1188.3333282470703" y="87.66666793823242" x="1058.473976135254" ry="0" rx="0" style=""></rect><g transform="translate(1611.0885543823242, 87.66666793823242)" class="cluster-label"><foreignObject height="22.666667938232422" width="83.10417175292969"><div style="display: inline-block; white-space: nowrap;" xmlns="http://www.w3.org/1999/xhtml"><span class="nodeLabel">1. 前置准备</span></div></foreignObject></g></g></g><g class="edgePaths"><path marker-end="url(#graphDiv_flowchart-pointEnd)" style="fill:none;" class="edge-thickness-normal edge-pattern-solid flowchart-link LS-START LE-S1A" id="L-START-S1A-0" d="M1568.849,25.898L1513.771,32.026C1458.693,38.154,1348.536,50.411,1293.458,60.705C1238.38,71,1238.38,79.333,1238.38,86.783C1238.38,94.233,1238.38,100.8,1238.38,104.083L1238.38,107.367"></path><path marker-end="url(#graphDiv_flowchart-pointEnd)" style="fill:none;" class="edge-thickness-normal edge-pattern-solid flowchart-link LS-START LE-S1B" id="L-START-S1B-0" d="M1577.711,37.667L1565.623,41.833C1553.535,46,1529.358,54.333,1517.27,62.667C1505.182,71,1505.182,79.333,1505.182,88.672C1505.182,98.011,1505.182,108.356,1505.182,113.528L1505.182,118.7"></path><path marker-end="url(#graphDiv_flowchart-pointEnd)" style="fill:none;" class="edge-thickness-normal edge-pattern-solid flowchart-link LS-START LE-S1C" id="L-START-S1C-0" d="M1686.987,37.667L1699.075,41.833C1711.163,46,1735.339,54.333,1747.428,62.667C1759.516,71,1759.516,79.333,1759.516,86.783C1759.516,94.233,1759.516,100.8,1759.516,104.083L1759.516,107.367"></path><path marker-end="url(#graphDiv_flowchart-pointEnd)" style="fill:none;" class="edge-thickness-normal edge-pattern-solid flowchart-link LS-START LE-S1D" id="L-START-S1D-0" d="M1695.849,25.095L1759.354,31.357C1822.859,37.619,1949.87,50.143,2013.375,60.571C2076.88,71,2076.88,79.333,2076.88,86.783C2076.88,94.233,2076.88,100.8,2076.88,104.083L2076.88,107.367"></path><path marker-end="url(#graphDiv_flowchart-pointEnd)" style="fill:none;" class="edge-thickness-normal edge-pattern-solid flowchart-link LS-S1A LE-S2A" id="L-S1A-S2A-0" d="M1238.38,195.667L1238.38,199.833C1238.38,204,1238.38,212.333,1238.38,220.667C1238.38,229,1238.38,237.333,1238.38,245.667C1238.38,254,1238.38,262.333,1238.446,269.867C1238.512,277.4,1238.644,284.134,1238.71,287.501L1238.776,290.868"></path><path marker-end="url(#graphDiv_flowchart-pointEnd)" style="fill:none;" class="edge-thickness-normal edge-pattern-solid flowchart-link LS-S2A LE-S2B" id="L-S2A-S2B-0" d="M1192.895,446.848L1180.76,460.485C1168.625,474.121,1144.354,501.394,1132.219,521.086C1120.083,540.778,1120.083,552.889,1120.083,562.228C1120.083,571.567,1120.083,578.133,1120.083,581.417L1120.083,584.7"></path><path marker-end="url(#graphDiv_flowchart-pointEnd)" style="fill:none;" class="edge-thickness-normal edge-pattern-solid flowchart-link LS-S2A LE-S2C" id="L-S2A-S2C-0" d="M1284.865,446.848L1296.834,460.485C1308.803,474.121,1332.74,501.394,1344.708,521.086C1356.677,540.778,1356.677,552.889,1356.677,562.228C1356.677,571.567,1356.677,578.133,1356.677,581.417L1356.677,584.7"></path><path marker-end="url(#graphDiv_flowchart-pointEnd)" style="fill:none;" class="edge-thickness-normal edge-pattern-solid flowchart-link LS-S2B LE-S3A" id="L-S2B-S3A-0" d="M1120.083,673L1120.083,677.167C1120.083,681.333,1120.083,689.667,1120.083,698C1120.083,706.333,1120.083,714.667,1120.083,723C1120.083,731.333,1120.083,739.667,1128.218,747.627C1136.352,755.587,1152.62,763.173,1160.755,766.967L1168.889,770.76"></path><path marker-end="url(#graphDiv_flowchart-pointEnd)" style="fill:none;" class="edge-thickness-normal edge-pattern-solid flowchart-link LS-S2C LE-S3A" id="L-S2C-S3A-0" d="M1356.677,673L1356.677,677.167C1356.677,681.333,1356.677,689.667,1356.677,698C1356.677,706.333,1356.677,714.667,1356.677,723C1356.677,731.333,1356.677,739.667,1348.543,747.627C1340.409,755.587,1324.14,763.173,1316.006,766.967L1307.872,770.76"></path><path marker-end="url(#graphDiv_flowchart-pointEnd)" style="fill:none;" class="edge-thickness-normal edge-pattern-solid flowchart-link LS-S3A LE-S3B" id="L-S3A-S3B-0" d="M1238.38,833.333L1238.38,839.389C1238.38,845.444,1238.38,857.556,1238.38,868.783C1238.38,880.011,1238.38,890.356,1238.38,895.528L1238.38,900.7"></path><path marker-end="url(#graphDiv_flowchart-pointEnd)" style="fill:none;" class="edge-thickness-normal edge-pattern-solid flowchart-link LS-S3B LE-S3C" id="L-S3B-S3C-0" d="M1126.464,951.07L1076.069,957.78C1025.674,964.491,924.884,977.912,874.489,988.789C824.094,999.667,824.094,1008,824.094,1015.45C824.094,1022.9,824.094,1029.467,824.094,1032.75L824.094,1036.033"></path><path marker-end="url(#graphDiv_flowchart-pointEnd)" style="fill:none;" class="edge-thickness-normal edge-pattern-solid flowchart-link LS-S3C LE-S3D" id="L-S3C-S3D-0" d="M824.094,1101.667L824.094,1105.833C824.094,1110,824.094,1118.333,824.094,1125.783C824.094,1133.233,824.094,1139.8,824.094,1143.083L824.094,1146.367"></path><path marker-end="url(#graphDiv_flowchart-pointEnd)" style="fill:none;" class="edge-thickness-normal edge-pattern-solid flowchart-link LS-S3D LE-S3E" id="L-S3D-S3E-0" d="M824.094,1212L824.094,1218.056C824.094,1224.111,824.094,1236.222,824.094,1247.45C824.094,1258.678,824.094,1269.022,824.094,1274.194L824.094,1279.367"></path><path marker-end="url(#graphDiv_flowchart-pointEnd)" style="fill:none;" class="edge-thickness-normal edge-pattern-solid flowchart-link LS-S3E LE-S4A" id="L-S3E-S4A-0" d="M707.042,1324.027L609.486,1331.689C511.931,1339.351,316.819,1354.676,219.264,1368.393C121.708,1382.111,121.708,1394.222,121.708,1406.333C121.708,1418.444,121.708,1430.556,121.708,1440.228C121.708,1449.9,121.708,1457.133,121.708,1460.75L121.708,1464.367"></path><path marker-end="url(#graphDiv_flowchart-pointEnd)" style="fill:none;" class="edge-thickness-normal edge-pattern-solid flowchart-link LS-S3E LE-S4B" id="L-S3E-S4B-0" d="M707.042,1328.243L646.293,1335.203C585.545,1342.162,464.049,1356.081,403.3,1369.096C342.552,1382.111,342.552,1394.222,342.552,1406.333C342.552,1418.444,342.552,1430.556,342.552,1440.228C342.552,1449.9,342.552,1457.133,342.552,1460.75L342.552,1464.367"></path><path marker-end="url(#graphDiv_flowchart-pointEnd)" style="fill:none;" class="edge-thickness-normal edge-pattern-solid flowchart-link LS-S3E LE-S4C" id="L-S3E-S4C-0" d="M707.042,1344.591L690.384,1348.826C673.726,1353.061,640.41,1361.53,623.752,1371.821C607.094,1382.111,607.094,1394.222,607.094,1406.333C607.094,1418.444,607.094,1430.556,607.094,1439.894C607.094,1449.233,607.094,1455.8,607.094,1459.083L607.094,1462.367"></path><path marker-end="url(#graphDiv_flowchart-pointEnd)" style="fill:none;" class="edge-thickness-normal edge-pattern-solid flowchart-link LS-S3E LE-S4D" id="L-S3E-S4D-0" d="M868.102,1345L874.18,1349.167C880.259,1353.333,892.416,1361.667,898.494,1371.889C904.573,1382.111,904.573,1394.222,904.573,1406.333C904.573,1418.444,904.573,1430.556,904.573,1441.783C904.573,1453.011,904.573,1463.356,904.573,1468.528L904.573,1473.7"></path><path marker-end="url(#graphDiv_flowchart-pointEnd)" style="fill:none;" class="edge-thickness-normal edge-pattern-solid flowchart-link LS-S3E LE-S4E" id="L-S3E-S4E-0" d="M941.146,1332.818L981.479,1339.015C1021.813,1345.212,1102.479,1357.606,1142.813,1369.859C1183.146,1382.111,1183.146,1394.222,1183.146,1406.333C1183.146,1418.444,1183.146,1430.556,1183.146,1439.894C1183.146,1449.233,1183.146,1455.8,1183.146,1459.083L1183.146,1462.367"></path><path marker-end="url(#graphDiv_flowchart-pointEnd)" style="fill:none;" class="edge-thickness-normal edge-pattern-solid flowchart-link LS-S3E LE-S4F" id="L-S3E-S4F-0" d="M941.146,1324.922L1028.313,1332.435C1115.479,1339.948,1289.813,1354.974,1376.979,1368.543C1464.146,1382.111,1464.146,1394.222,1464.146,1406.333C1464.146,1418.444,1464.146,1430.556,1464.146,1439.894C1464.146,1449.233,1464.146,1455.8,1464.146,1459.083L1464.146,1462.367"></path><path marker-end="url(#graphDiv_flowchart-pointEnd)" style="fill:none;" class="edge-thickness-normal edge-pattern-solid flowchart-link LS-S3E LE-S4G" id="L-S3E-S4G-0" d="M941.146,1322.097L1069.813,1330.08C1198.479,1338.064,1455.813,1354.032,1584.479,1368.072C1713.146,1382.111,1713.146,1394.222,1713.146,1406.333C1713.146,1418.444,1713.146,1430.556,1713.146,1441.783C1713.146,1453.011,1713.146,1463.356,1713.146,1468.528L1713.146,1473.7"></path><path marker-end="url(#graphDiv_flowchart-pointEnd)" style="fill:none;" class="edge-thickness-normal edge-pattern-solid flowchart-link LS-S4A LE-S5A" id="L-S4A-S5A-0" d="M121.708,1526L121.708,1530.5C121.708,1535,121.708,1544,121.708,1552.667C121.708,1561.333,121.708,1569.667,121.708,1578C121.708,1586.333,121.708,1594.667,236.404,1605.131C351.101,1615.596,580.493,1628.192,695.189,1634.49L809.885,1640.789"></path><path marker-end="url(#graphDiv_flowchart-pointEnd)" style="fill:none;" class="edge-thickness-normal edge-pattern-solid flowchart-link LS-S4B LE-S5A" id="L-S4B-S5A-0" d="M342.552,1526L342.552,1530.5C342.552,1535,342.552,1544,342.552,1552.667C342.552,1561.333,342.552,1569.667,342.552,1578C342.552,1586.333,342.552,1594.667,420.442,1604.746C498.332,1614.826,654.112,1626.651,732.002,1632.564L809.892,1638.477"></path><path marker-end="url(#graphDiv_flowchart-pointEnd)" style="fill:none;" class="edge-thickness-normal edge-pattern-solid flowchart-link LS-S4C LE-S5A" id="L-S4C-S5A-0" d="M607.094,1528L607.094,1532.167C607.094,1536.333,607.094,1544.667,607.094,1553C607.094,1561.333,607.094,1569.667,607.094,1578C607.094,1586.333,607.094,1594.667,640.9,1603.569C674.705,1612.472,742.317,1621.945,776.123,1626.681L809.928,1631.417"></path><path marker-end="url(#graphDiv_flowchart-pointEnd)" style="fill:none;" class="edge-thickness-normal edge-pattern-solid flowchart-link LS-S4D LE-S5A" id="L-S4D-S5A-0" d="M904.573,1516.667L904.573,1522.722C904.573,1528.778,904.573,1540.889,904.573,1551.111C904.573,1561.333,904.573,1569.667,904.573,1578C904.573,1586.333,904.573,1594.667,905.744,1602.167C906.914,1609.666,909.256,1616.333,910.427,1619.666L911.597,1622.999"></path><path marker-end="url(#graphDiv_flowchart-pointEnd)" style="fill:none;" class="edge-thickness-normal edge-pattern-solid flowchart-link LS-S4E LE-S5A" id="L-S4E-S5A-0" d="M1183.146,1528L1183.146,1532.167C1183.146,1536.333,1183.146,1544.667,1183.146,1553C1183.146,1561.333,1183.146,1569.667,1183.146,1578C1183.146,1586.333,1183.146,1594.667,1157.62,1603.085C1132.093,1611.503,1081.041,1620.006,1055.515,1624.258L1029.988,1628.509"></path><path marker-end="url(#graphDiv_flowchart-pointEnd)" style="fill:none;" class="edge-thickness-normal edge-pattern-solid flowchart-link LS-S4F LE-S5A" id="L-S4F-S5A-0" d="M1464.146,1528L1464.146,1532.167C1464.146,1536.333,1464.146,1544.667,1464.146,1553C1464.146,1561.333,1464.146,1569.667,1464.146,1578C1464.146,1586.333,1464.146,1594.667,1391.795,1604.661C1319.445,1614.656,1174.744,1626.311,1102.394,1632.139L1030.043,1637.967"></path><path marker-end="url(#graphDiv_flowchart-pointEnd)" style="fill:none;" class="edge-thickness-normal edge-pattern-solid flowchart-link LS-S4G LE-S5A" id="L-S4G-S5A-0" d="M1713.146,1516.667L1713.146,1522.722C1713.146,1528.778,1713.146,1540.889,1713.146,1551.111C1713.146,1561.333,1713.146,1569.667,1713.146,1578C1713.146,1586.333,1713.146,1594.667,1599.297,1605.125C1485.448,1615.583,1257.75,1628.167,1143.901,1634.458L1030.052,1640.75"></path><path marker-end="url(#graphDiv_flowchart-pointEnd)" style="fill:none;" class="edge-thickness-normal edge-pattern-solid flowchart-link LS-S5A LE-S5B" id="L-S5A-S5B-0" d="M919.969,1665.667L919.969,1669.833C919.969,1674,919.969,1682.333,919.969,1689.783C919.969,1697.233,919.969,1703.8,919.969,1707.083L919.969,1710.367"></path><path marker-end="url(#graphDiv_flowchart-pointEnd)" style="fill:none;" class="edge-thickness-normal edge-pattern-solid flowchart-link LS-S5B LE-S5C" id="L-S5B-S5C-0" d="M919.969,1776L919.969,1780.167C919.969,1784.333,919.969,1792.667,1098.305,1805.472C1276.642,1818.278,1633.315,1835.556,1811.651,1844.195L1989.987,1852.834"></path><path marker-end="url(#graphDiv_flowchart-pointEnd)" style="fill:none;" class="edge-thickness-normal edge-pattern-solid flowchart-link LS-S5C LE-S6A" id="L-S5C-S6A-0" d="M2097.113,1826L2102.408,1821.833C2107.702,1817.667,2118.291,1809.333,2123.586,1795.972C2128.88,1782.611,2128.88,1764.222,2128.88,1745.833C2128.88,1727.444,2128.88,1709.056,2128.88,1692.556C2128.88,1676.056,2128.88,1661.444,2128.88,1646.833C2128.88,1632.222,2128.88,1617.611,2128.88,1606.139C2128.88,1594.667,2128.88,1586.333,2128.88,1578C2128.88,1569.667,2128.88,1561.333,2128.88,1547.972C2128.88,1534.611,2128.88,1516.222,2128.88,1497.833C2128.88,1479.444,2128.88,1461.056,2128.88,1445.806C2128.88,1430.556,2128.88,1418.444,2170.844,1406.333C2212.807,1394.222,2296.734,1382.111,2338.698,1366.861C2380.661,1351.611,2380.661,1333.222,2380.661,1312.944C2380.661,1292.667,2380.661,1270.5,2380.661,1248.333C2380.661,1226.167,2380.661,1204,2380.661,1183.722C2380.661,1163.444,2380.661,1145.056,2380.661,1126.667C2380.661,1108.278,2380.661,1089.889,2380.661,1071.5C2380.661,1053.111,2380.661,1034.722,2380.661,1021.361C2380.661,1008,2380.661,999.667,2380.661,986.306C2380.661,972.944,2380.661,954.556,2380.661,934.278C2380.661,914,2380.661,891.833,2380.661,869.667C2380.661,847.5,2380.661,825.333,2380.661,805.056C2380.661,784.778,2380.661,766.389,2380.661,753.028C2380.661,739.667,2380.661,731.333,2380.661,723C2380.661,714.667,2380.661,706.333,2358.598,694.512C2336.535,682.69,2292.41,667.38,2270.347,659.726L2248.284,652.071"></path><path marker-end="url(#graphDiv_flowchart-pointEnd)" style="fill:none;" class="edge-thickness-normal edge-pattern-solid flowchart-link LS-S5C LE-S3B" id="L-S5C-S3B-0" d="M2122.281,1827.476L2132.048,1823.063C2141.814,1818.651,2161.347,1809.825,2171.114,1796.218C2180.88,1782.611,2180.88,1764.222,2180.88,1745.833C2180.88,1727.444,2180.88,1709.056,2180.88,1692.556C2180.88,1676.056,2180.88,1661.444,2180.88,1646.833C2180.88,1632.222,2180.88,1617.611,2180.88,1606.139C2180.88,1594.667,2180.88,1586.333,2180.88,1578C2180.88,1569.667,2180.88,1561.333,2180.88,1547.972C2180.88,1534.611,2180.88,1516.222,2180.88,1497.833C2180.88,1479.444,2180.88,1461.056,2180.88,1445.806C2180.88,1430.556,2180.88,1418.444,2122.699,1406.333C2064.517,1394.222,1948.155,1382.111,1889.973,1366.861C1831.792,1351.611,1831.792,1333.222,1831.792,1312.944C1831.792,1292.667,1831.792,1270.5,1831.792,1248.333C1831.792,1226.167,1831.792,1204,1831.792,1183.722C1831.792,1163.444,1831.792,1145.056,1831.792,1126.667C1831.792,1108.278,1831.792,1089.889,1831.792,1071.5C1831.792,1053.111,1831.792,1034.722,1831.792,1021.361C1831.792,1008,1831.792,999.667,1752.422,988.121C1673.052,976.576,1514.313,961.819,1434.944,954.44L1355.574,947.062"></path><path marker-end="url(#graphDiv_flowchart-pointEnd)" style="fill:none;" class="edge-thickness-normal edge-pattern-solid flowchart-link LS-S6A LE-S6B" id="L-S6A-S6B-0" d="M2186.558,650.333L2185.53,658.278C2184.502,666.222,2182.446,682.111,2181.419,694.222C2180.391,706.333,2180.391,714.667,2180.391,723C2180.391,731.333,2180.391,739.667,2180.391,749.006C2180.391,758.344,2180.391,768.689,2180.391,773.861L2180.391,779.033"></path><path marker-end="url(#graphDiv_flowchart-pointEnd)" style="fill:none;" class="edge-thickness-normal edge-pattern-solid flowchart-link LS-S6B LE-S6C" id="L-S6B-S6C-0" d="M2186.621,822L2189.249,829.944C2191.878,837.889,2197.134,853.778,2199.762,866.894C2202.391,880.011,2202.391,890.356,2202.391,895.528L2202.391,900.7"></path><path marker-end="url(#graphDiv_flowchart-pointEnd)" style="fill:none;stroke-width:2px;stroke-dasharray:3;" class="edge-thickness-normal edge-pattern-dotted flowchart-link LS-S6A LE-S3B" id="L-S6A-S3B-0" d="M2142.802,650.333L2123.317,658.278C2103.832,666.222,2064.861,682.111,2045.376,694.222C2025.891,706.333,2025.891,714.667,2025.891,723C2025.891,731.333,2025.891,739.667,2025.891,753.028C2025.891,766.389,2025.891,784.778,2025.891,805.056C2025.891,825.333,2025.891,847.5,1914.172,868.017C1802.453,888.534,1579.016,907.402,1467.297,916.836L1355.578,926.27"></path><path marker-end="url(#graphDiv_flowchart-pointEnd)" style="fill:none;stroke-width:2px;stroke-dasharray:3;" class="edge-thickness-normal edge-pattern-dotted flowchart-link LS-S6B LE-S3B" id="L-S6B-S3B-0" d="M2164.743,822L2158.143,829.944C2151.542,837.889,2138.342,853.778,2003.481,871.341C1868.621,888.904,1612.102,908.141,1483.842,917.759L1355.582,927.377"></path></g><g class="edgeLabels"><g class="edgeLabel"><g transform="translate(0, 0)" class="label"><foreignObject height="0" width="0"><div style="display: inline-block; white-space: nowrap;" xmlns="http://www.w3.org/1999/xhtml"><span class="edgeLabel"></span></div></foreignObject></g></g><g class="edgeLabel"><g transform="translate(0, 0)" class="label"><foreignObject height="0" width="0"><div style="display: inline-block; white-space: nowrap;" xmlns="http://www.w3.org/1999/xhtml"><span class="edgeLabel"></span></div></foreignObject></g></g><g class="edgeLabel"><g transform="translate(0, 0)" class="label"><foreignObject height="0" width="0"><div style="display: inline-block; white-space: nowrap;" xmlns="http://www.w3.org/1999/xhtml"><span class="edgeLabel"></span></div></foreignObject></g></g><g class="edgeLabel"><g transform="translate(0, 0)" class="label"><foreignObject height="0" width="0"><div style="display: inline-block; white-space: nowrap;" xmlns="http://www.w3.org/1999/xhtml"><span class="edgeLabel"></span></div></foreignObject></g></g><g class="edgeLabel"><g transform="translate(0, 0)" class="label"><foreignObject height="0" width="0"><div style="display: inline-block; white-space: nowrap;" xmlns="http://www.w3.org/1999/xhtml"><span class="edgeLabel"></span></div></foreignObject></g></g><g transform="translate(1120.083351135254, 528.6666736602783)" class="edgeLabel"><g transform="translate(-8, -11.333333969116211)" class="label"><foreignObject height="22.666667938232422" width="16"><div style="display: inline-block; white-space: nowrap;" xmlns="http://www.w3.org/1999/xhtml"><span class="edgeLabel">否</span></div></foreignObject></g></g><g transform="translate(1356.677101135254, 528.6666736602783)" class="edgeLabel"><g transform="translate(-8, -11.333333969116211)" class="label"><foreignObject height="22.666667938232422" width="16"><div style="display: inline-block; white-space: nowrap;" xmlns="http://www.w3.org/1999/xhtml"><span class="edgeLabel">是</span></div></foreignObject></g></g><g class="edgeLabel"><g transform="translate(0, 0)" class="label"><foreignObject height="0" width="0"><div style="display: inline-block; white-space: nowrap;" xmlns="http://www.w3.org/1999/xhtml"><span class="edgeLabel"></span></div></foreignObject></g></g><g class="edgeLabel"><g transform="translate(0, 0)" class="label"><foreignObject height="0" width="0"><div style="display: inline-block; white-space: nowrap;" xmlns="http://www.w3.org/1999/xhtml"><span class="edgeLabel"></span></div></foreignObject></g></g><g class="edgeLabel"><g transform="translate(0, 0)" class="label"><foreignObject height="0" width="0"><div style="display: inline-block; white-space: nowrap;" xmlns="http://www.w3.org/1999/xhtml"><span class="edgeLabel"></span></div></foreignObject></g></g><g class="edgeLabel"><g transform="translate(0, 0)" class="label"><foreignObject height="0" width="0"><div style="display: inline-block; white-space: nowrap;" xmlns="http://www.w3.org/1999/xhtml"><span class="edgeLabel"></span></div></foreignObject></g></g><g class="edgeLabel"><g transform="translate(0, 0)" class="label"><foreignObject height="0" width="0"><div style="display: inline-block; white-space: nowrap;" xmlns="http://www.w3.org/1999/xhtml"><span class="edgeLabel"></span></div></foreignObject></g></g><g class="edgeLabel"><g transform="translate(0, 0)" class="label"><foreignObject height="0" width="0"><div style="display: inline-block; white-space: nowrap;" xmlns="http://www.w3.org/1999/xhtml"><span class="edgeLabel"></span></div></foreignObject></g></g><g class="edgeLabel"><g transform="translate(0, 0)" class="label"><foreignObject height="0" width="0"><div style="display: inline-block; white-space: nowrap;" xmlns="http://www.w3.org/1999/xhtml"><span class="edgeLabel"></span></div></foreignObject></g></g><g class="edgeLabel"><g transform="translate(0, 0)" class="label"><foreignObject height="0" width="0"><div style="display: inline-block; white-space: nowrap;" xmlns="http://www.w3.org/1999/xhtml"><span class="edgeLabel"></span></div></foreignObject></g></g><g class="edgeLabel"><g transform="translate(0, 0)" class="label"><foreignObject height="0" width="0"><div style="display: inline-block; white-space: nowrap;" xmlns="http://www.w3.org/1999/xhtml"><span class="edgeLabel"></span></div></foreignObject></g></g><g class="edgeLabel"><g transform="translate(0, 0)" class="label"><foreignObject height="0" width="0"><div style="display: inline-block; white-space: nowrap;" xmlns="http://www.w3.org/1999/xhtml"><span class="edgeLabel"></span></div></foreignObject></g></g><g class="edgeLabel"><g transform="translate(0, 0)" class="label"><foreignObject height="0" width="0"><div style="display: inline-block; white-space: nowrap;" xmlns="http://www.w3.org/1999/xhtml"><span class="edgeLabel"></span></div></foreignObject></g></g><g class="edgeLabel"><g transform="translate(0, 0)" class="label"><foreignObject height="0" width="0"><div style="display: inline-block; white-space: nowrap;" xmlns="http://www.w3.org/1999/xhtml"><span class="edgeLabel"></span></div></foreignObject></g></g><g class="edgeLabel"><g transform="translate(0, 0)" class="label"><foreignObject height="0" width="0"><div style="display: inline-block; white-space: nowrap;" xmlns="http://www.w3.org/1999/xhtml"><span class="edgeLabel"></span></div></foreignObject></g></g><g class="edgeLabel"><g transform="translate(0, 0)" class="label"><foreignObject height="0" width="0"><div style="display: inline-block; white-space: nowrap;" xmlns="http://www.w3.org/1999/xhtml"><span class="edgeLabel"></span></div></foreignObject></g></g><g class="edgeLabel"><g transform="translate(0, 0)" class="label"><foreignObject height="0" width="0"><div style="display: inline-block; white-space: nowrap;" xmlns="http://www.w3.org/1999/xhtml"><span class="edgeLabel"></span></div></foreignObject></g></g><g class="edgeLabel"><g transform="translate(0, 0)" class="label"><foreignObject height="0" width="0"><div style="display: inline-block; white-space: nowrap;" xmlns="http://www.w3.org/1999/xhtml"><span class="edgeLabel"></span></div></foreignObject></g></g><g class="edgeLabel"><g transform="translate(0, 0)" class="label"><foreignObject height="0" width="0"><div style="display: inline-block; white-space: nowrap;" xmlns="http://www.w3.org/1999/xhtml"><span class="edgeLabel"></span></div></foreignObject></g></g><g class="edgeLabel"><g transform="translate(0, 0)" class="label"><foreignObject height="0" width="0"><div style="display: inline-block; white-space: nowrap;" xmlns="http://www.w3.org/1999/xhtml"><span class="edgeLabel"></span></div></foreignObject></g></g><g class="edgeLabel"><g transform="translate(0, 0)" class="label"><foreignObject height="0" width="0"><div style="display: inline-block; white-space: nowrap;" xmlns="http://www.w3.org/1999/xhtml"><span class="edgeLabel"></span></div></foreignObject></g></g><g class="edgeLabel"><g transform="translate(0, 0)" class="label"><foreignObject height="0" width="0"><div style="display: inline-block; white-space: nowrap;" xmlns="http://www.w3.org/1999/xhtml"><span class="edgeLabel"></span></div></foreignObject></g></g><g class="edgeLabel"><g transform="translate(0, 0)" class="label"><foreignObject height="0" width="0"><div style="display: inline-block; white-space: nowrap;" xmlns="http://www.w3.org/1999/xhtml"><span class="edgeLabel"></span></div></foreignObject></g></g><g class="edgeLabel"><g transform="translate(0, 0)" class="label"><foreignObject height="0" width="0"><div style="display: inline-block; white-space: nowrap;" xmlns="http://www.w3.org/1999/xhtml"><span class="edgeLabel"></span></div></foreignObject></g></g><g transform="translate(2380.661476135254, 1248.3333377838135)" class="edgeLabel"><g transform="translate(-32, -11.333333969116211)" class="label"><foreignObject height="22.666667938232422" width="64"><div style="display: inline-block; white-space: nowrap;" xmlns="http://www.w3.org/1999/xhtml"><span class="edgeLabel">校验通过</span></div></foreignObject></g></g><g transform="translate(2180.8802223205566, 1406.3333377838135)" class="edgeLabel"><g transform="translate(-32, -11.333333969116211)" class="label"><foreignObject height="22.666667938232422" width="64"><div style="display: inline-block; white-space: nowrap;" xmlns="http://www.w3.org/1999/xhtml"><span class="edgeLabel">校验失败</span></div></foreignObject></g></g><g class="edgeLabel"><g transform="translate(0, 0)" class="label"><foreignObject height="0" width="0"><div style="display: inline-block; white-space: nowrap;" xmlns="http://www.w3.org/1999/xhtml"><span class="edgeLabel"></span></div></foreignObject></g></g><g class="edgeLabel"><g transform="translate(0, 0)" class="label"><foreignObject height="0" width="0"><div style="display: inline-block; white-space: nowrap;" xmlns="http://www.w3.org/1999/xhtml"><span class="edgeLabel"></span></div></foreignObject></g></g><g transform="translate(2025.8906326293945, 803.1666736602783)" class="edgeLabel"><g transform="translate(-32, -11.333333969116211)" class="label"><foreignObject height="22.666667938232422" width="64"><div style="display: inline-block; white-space: nowrap;" xmlns="http://www.w3.org/1999/xhtml"><span class="edgeLabel">暴露问题</span></div></foreignObject></g></g><g transform="translate(2125.1406326293945, 869.6666736602783)" class="edgeLabel"><g transform="translate(-24, -11.333333969116211)" class="label"><foreignObject height="22.666667938232422" width="48"><div style="display: inline-block; white-space: nowrap;" xmlns="http://www.w3.org/1999/xhtml"><span class="edgeLabel">需优化</span></div></foreignObject></g></g></g><g class="nodes"><g transform="translate(2188.994800567627, 631.5000076293945)" data-id="S6A" data-node="true" id="flowchart-S6A-345" class="node default default flowchart-label"><rect height="37.66666793823242" width="188.5625" y="-18.83333396911621" x="-94.28125" ry="0" rx="0" style="" class="basic label-container"></rect><g transform="translate(-86.78125, -11.333333969116211)" style="" class="label"><rect></rect><foreignObject height="22.666667938232422" width="173.5625"><div style="display: inline-block; white-space: nowrap;" xmlns="http://www.w3.org/1999/xhtml"><span class="nodeLabel">DFM提测：暴露配置问题</span></div></foreignObject></g></g><g transform="translate(2180.3906326293945, 803.1666736602783)" data-id="S6B" data-node="true" id="flowchart-S6B-346" class="node default default flowchart-label"><rect height="37.66666793823242" width="175" y="-18.83333396911621" x="-87.5" ry="0" rx="0" style="" class="basic label-container"></rect><g transform="translate(-80, -11.333333969116211)" style="" class="label"><rect></rect><foreignObject height="22.666667938232422" width="160"><div style="display: inline-block; white-space: nowrap;" xmlns="http://www.w3.org/1999/xhtml"><span class="nodeLabel">试产：进一步验证优化</span></div></foreignObject></g></g><g transform="translate(2202.3906326293945, 936.1666736602783)" data-id="S6C" data-node="true" id="flowchart-S6C-347" class="node default default flowchart-label"><rect height="60.333335876464844" width="286.54168701171875" y="-30.166667938232422" x="-143.27084350585938" ry="0" rx="0" style="" class="basic label-container"></rect><g transform="translate(-135.77084350585938, -22.666667938232422)" style="" class="label"><rect></rect><foreignObject height="45.333335876464844" width="271.54168701171875"><div style="display: inline-block; white-space: nowrap;" xmlns="http://www.w3.org/1999/xhtml"><span class="nodeLabel">量产：配置稳定<br>纳入 preburn_config.json Git版本管理</span></div></foreignObject></g></g><g transform="translate(919.9687614440918, 1646.8333377838135)" data-id="S5A" data-node="true" id="flowchart-S5A-342" class="node default default flowchart-label"><rect height="37.66666793823242" width="209.58334350585938" y="-18.83333396911621" x="-104.79167175292969" ry="0" rx="0" style="" class="basic label-container"></rect><g transform="translate(-97.29167175292969, -11.333333969116211)" style="" class="label"><rect></rect><foreignObject height="22.666667938232422" width="194.58334350585938"><div style="display: inline-block; white-space: nowrap;" xmlns="http://www.w3.org/1999/xhtml"><span class="nodeLabel">PID编码与hidSid一致性校验</span></div></foreignObject></g></g><g transform="translate(919.9687614440918, 1745.8333377838135)" data-id="S5B" data-node="true" id="flowchart-S5B-343" class="node default default flowchart-label"><rect height="60.333335876464844" width="218.8541717529297" y="-30.166667938232422" x="-109.42708587646484" ry="0" rx="0" style="" class="basic label-container"></rect><g transform="translate(-101.92708587646484, -22.666667938232422)" style="" class="label"><rect></rect><foreignObject height="45.333335876464844" width="203.8541717529297"><div style="display: inline-block; white-space: nowrap;" xmlns="http://www.w3.org/1999/xhtml"><span class="nodeLabel">EMMC与机型尺寸匹配校验<br>（50寸→32G, ≥98寸→64G）</span></div></foreignObject></g></g><g transform="translate(2058.781265258789, 1856.166669845581)" data-id="S5C" data-node="true" id="flowchart-S5C-344" class="node default default flowchart-label"><rect height="60.333335876464844" width="127" y="-30.166667938232422" x="-63.5" ry="0" rx="0" style="" class="basic label-container"></rect><g transform="translate(-56, -22.666667938232422)" style="" class="label"><rect></rect><foreignObject height="45.333335876464844" width="112"><div style="display: inline-block; white-space: nowrap;" xmlns="http://www.w3.org/1999/xhtml"><span class="nodeLabel">全机型覆盖检查<br>（无遗漏机型）</span></div></foreignObject></g></g><g transform="translate(121.70833587646484, 1497.8333377838135)" data-id="S4A" data-node="true" id="flowchart-S4A-335" class="node default default flowchart-label"><rect height="56.333335876464844" width="173.4166717529297" y="-28.166667938232422" x="-86.70833587646484" ry="0" rx="0" style="" class="basic label-container"></rect><g transform="translate(-79.20833587646484, -20.666667938232422)" style="" class="label"><rect></rect><foreignObject height="41.333335876464844" width="158.4166717529297"><div style="display: inline-block; white-space: nowrap;" xmlns="http://www.w3.org/1999/xhtml"><span class="nodeLabel">制式：决定频点库<br>ATSC/DVB/ISDB/DTMB</span></div></foreignObject></g></g><g transform="translate(342.5520935058594, 1497.8333377838135)" data-id="S4B" data-node="true" id="flowchart-S4B-336" class="node default default flowchart-label"><rect height="56.333335876464844" width="168.27084350585938" y="-28.166667938232422" x="-84.13542175292969" ry="0" rx="0" style="" class="basic label-container"></rect><g transform="translate(-76.63542175292969, -20.666667938232422)" style="" class="label"><rect></rect><foreignObject height="41.333335876464844" width="153.27084350585938"><div style="display: inline-block; white-space: nowrap;" xmlns="http://www.w3.org/1999/xhtml"><span class="nodeLabel">品牌：决定视频路径<br>TCL/iFFALCON/ROWA</span></div></foreignObject></g></g><g transform="translate(607.0937652587891, 1497.8333377838135)" data-id="S4C" data-node="true" id="flowchart-S4C-337" class="node default default flowchart-label"><rect height="60.333335876464844" width="260.8125" y="-30.166667938232422" x="-130.40625" ry="0" rx="0" style="" class="basic label-container"></rect><g transform="translate(-122.90625, -22.666667938232422)" style="" class="label"><rect></rect><foreignObject height="45.333335876464844" width="245.8125"><div style="display: inline-block; white-space: nowrap;" xmlns="http://www.w3.org/1999/xhtml"><span class="nodeLabel">EMMC：决定userdata大小<br>32G/64G（MT9655自适应可统一）</span></div></foreignObject></g></g><g transform="translate(904.5729293823242, 1497.8333377838135)" data-id="S4D" data-node="true" id="flowchart-S4D-338" class="node default default flowchart-label"><rect height="37.66666793823242" width="234.14584350585938" y="-18.83333396911621" x="-117.07292175292969" ry="0" rx="0" style="" class="basic label-container"></rect><g transform="translate(-109.57292175292969, -11.333333969116211)" style="" class="label"><rect></rect><foreignObject height="22.666667938232422" width="219.14584350585938"><div style="display: inline-block; white-space: nowrap;" xmlns="http://www.w3.org/1999/xhtml"><span class="nodeLabel">内置视频：RU必须NO_Olympic</span></div></foreignObject></g></g><g transform="translate(1183.1458435058594, 1497.8333377838135)" data-id="S4E" data-node="true" id="flowchart-S4E-339" class="node default default flowchart-label"><rect height="60.333335876464844" width="223" y="-30.166667938232422" x="-111.5" ry="0" rx="0" style="" class="basic label-container"></rect><g transform="translate(-104, -22.666667938232422)" style="" class="label"><rect></rect><foreignObject height="45.333335876464844" width="208"><div style="display: inline-block; white-space: nowrap;" xmlns="http://www.w3.org/1999/xhtml"><span class="nodeLabel">LDM：LD/NOLD需分组<br>（同机型不同尺寸可能不同）</span></div></foreignObject></g></g><g transform="translate(1464.1458435058594, 1497.8333377838135)" data-id="S4F" data-node="true" id="flowchart-S4F-340" class="node default default flowchart-label"><rect height="60.333335876464844" width="239" y="-30.166667938232422" x="-119.5" ry="0" rx="0" style="" class="basic label-container"></rect><g transform="translate(-112, -22.666667938232422)" style="" class="label"><rect></rect><foreignObject height="45.333335876464844" width="224"><div style="display: inline-block; white-space: nowrap;" xmlns="http://www.w3.org/1999/xhtml"><span class="nodeLabel">光感：关闭lightsensor=0<br>（新项目不再因光感差异分组）</span></div></foreignObject></g></g><g transform="translate(1713.1458435058594, 1497.8333377838135)" data-id="S4G" data-node="true" id="flowchart-S4G-341" class="node default default flowchart-label"><rect height="37.66666793823242" width="159" y="-18.83333396911621" x="-79.5" ry="0" rx="0" style="" class="basic label-container"></rect><g transform="translate(-72, -11.333333969116211)" style="" class="label"><rect></rect><foreignObject height="22.666667938232422" width="144"><div style="display: inline-block; white-space: nowrap;" xmlns="http://www.w3.org/1999/xhtml"><span class="nodeLabel">功放：匹配功放驱动</span></div></foreignObject></g></g><g transform="translate(1238.380226135254, 803.1666736602783)" data-id="S3A" data-node="true" id="flowchart-S3A-330" class="node default default flowchart-label"><rect height="60.333335876464844" width="200.1666717529297" y="-30.166667938232422" x="-100.08333587646484" ry="0" rx="0" style="" class="basic label-container"></rect><g transform="translate(-92.58333587646484, -22.666667938232422)" style="" class="label"><rect></rect><foreignObject height="45.333335876464844" width="185.1666717529297"><div style="display: inline-block; white-space: nowrap;" xmlns="http://www.w3.org/1999/xhtml"><span class="nodeLabel">创建 config.json 骨架<br>（EU/CA/LA/HK 四区域）</span></div></foreignObject></g></g><g transform="translate(1238.380226135254, 936.1666736602783)" data-id="S3B" data-node="true" id="flowchart-S3B-331" class="node default default flowchart-label"><rect height="60.333335876464844" width="223.83334350585938" y="-30.166667938232422" x="-111.91667175292969" ry="0" rx="0" style="" class="basic label-container"></rect><g transform="translate(-104.41667175292969, -22.666667938232422)" style="" class="label"><rect></rect><foreignObject height="45.333335876464844" width="208.83334350585938"><div style="display: inline-block; white-space: nowrap;" xmlns="http://www.w3.org/1999/xhtml"><span class="nodeLabel">分配预抄写 PID 和 hidSid<br>（预研测试PID → 正式分配）</span></div></foreignObject></g></g><g transform="translate(824.0937690734863, 1071.500005722046)" data-id="S3C" data-node="true" id="flowchart-S3C-332" class="node default default flowchart-label"><rect height="60.333335876464844" width="216.4166717529297" y="-30.166667938232422" x="-108.20833587646484" ry="0" rx="0" style="" class="basic label-container"></rect><g transform="translate(-100.70833587646484, -22.666667938232422)" style="" class="label"><rect></rect><foreignObject height="45.333335876464844" width="201.4166717529297"><div style="display: inline-block; white-space: nowrap;" xmlns="http://www.w3.org/1999/xhtml"><span class="nodeLabel">配置频点库映射<br>（区域area → 频点库文件）</span></div></foreignObject></g></g><g transform="translate(824.0937690734863, 1181.8333377838135)" data-id="S3D" data-node="true" id="flowchart-S3D-333" class="node default default flowchart-label"><rect height="60.333335876464844" width="280.4375" y="-30.166667938232422" x="-140.21875" ry="0" rx="0" style="" class="basic label-container"></rect><g transform="translate(-132.71875, -22.666667938232422)" style="" class="label"><rect></rect><foreignObject height="45.333335876464844" width="265.4375"><div style="display: inline-block; white-space: nowrap;" xmlns="http://www.w3.org/1999/xhtml"><span class="nodeLabel">配置内置视频路径<br>（videoFtp，RU用NO_Olympic覆盖）</span></div></foreignObject></g></g><g transform="translate(824.0937690734863, 1314.8333377838135)" data-id="S3E" data-node="true" id="flowchart-S3E-334" class="node default default flowchart-label"><rect height="60.333335876464844" width="234.1041717529297" y="-30.166667938232422" x="-117.05208587646484" ry="0" rx="0" style="" class="basic label-container"></rect><g transform="translate(-109.55208587646484, -22.666667938232422)" style="" class="label"><rect></rect><foreignObject height="45.333335876464844" width="219.1041717529297"><div style="display: inline-block; white-space: nowrap;" xmlns="http://www.w3.org/1999/xhtml"><span class="nodeLabel">填充机型列表<br>（FDS机型 → groups.models）</span></div></foreignObject></g></g><g transform="translate(1238.380226135254, 394.00000381469727)" data-id="S2A" data-node="true" id="flowchart-S2A-327" class="node default default flowchart-label"><polygon style="" transform="translate(-98.33333396911621,98.33333396911621)" class="label-container" points="98.33333396911621,0 196.66666793823242,-98.33333396911621 98.33333396911621,-196.66666793823242 0,-98.33333396911621"></polygon><g transform="translate(-72, -11.333333969116211)" style="" class="label"><rect></rect><foreignObject height="22.666667938232422" width="144"><div style="display: inline-block; white-space: nowrap;" xmlns="http://www.w3.org/1999/xhtml"><span class="nodeLabel">有同系机型已量产？</span></div></foreignObject></g></g><g transform="translate(1120.083351135254, 631.5000076293945)" data-id="S2B" data-node="true" id="flowchart-S2B-328" class="node default default flowchart-label"><rect height="83" width="207" y="-41.5" x="-103.5" ry="0" rx="0" style="" class="basic label-container"></rect><g transform="translate(-96, -34)" style="" class="label"><rect></rect><foreignObject height="68" width="192"><div style="display: inline-block; white-space: nowrap;" xmlns="http://www.w3.org/1999/xhtml"><span class="nodeLabel">策略一：基础配置参考<br>参考同SoC厂商其他项目<br>以预研情况配置最基础配置</span></div></foreignObject></g></g><g transform="translate(1356.677101135254, 631.5000076293945)" data-id="S2C" data-node="true" id="flowchart-S2C-329" class="node default default flowchart-label"><rect height="83" width="166.1875" y="-41.5" x="-83.09375" ry="0" rx="0" style="" class="basic label-container"></rect><g transform="translate(-75.59375, -34)" style="" class="label"><rect></rect><foreignObject height="68" width="151.1875"><div style="display: inline-block; white-space: nowrap;" xmlns="http://www.w3.org/1999/xhtml"><span class="nodeLabel">策略二：量产PID复制<br>复制量产PID配置<br>创建预抄写PID配置</span></div></foreignObject></g></g><g transform="translate(1238.380226135254, 154.16666793823242)" data-id="S1A" data-node="true" id="flowchart-S1A-323" class="node default default flowchart-label"><rect height="83" width="289.8125" y="-41.5" x="-144.90625" ry="0" rx="0" style="" class="basic label-container"></rect><g transform="translate(-137.40625, -34)" style="" class="label"><rect></rect><foreignObject height="68" width="274.8125"><div style="display: inline-block; white-space: nowrap;" xmlns="http://www.w3.org/1999/xhtml"><span class="nodeLabel">获取 FDS 产品配置信息<br>（机型/尺寸/区域/光感/EMMC/功放）<br>责任人：开发代表</span></div></foreignObject></g></g><g transform="translate(1505.1823120117188, 154.16666793823242)" data-id="S1B" data-node="true" id="flowchart-S1B-324" class="node default default flowchart-label"><rect height="60.333335876464844" width="143.7916717529297" y="-30.166667938232422" x="-71.89583587646484" ry="0" rx="0" style="" class="basic label-container"></rect><g transform="translate(-64.39583587646484, -22.666667938232422)" style="" class="label"><rect></rect><foreignObject height="45.333335876464844" width="128.7916717529297"><div style="display: inline-block; white-space: nowrap;" xmlns="http://www.w3.org/1999/xhtml"><span class="nodeLabel">获取 SID 配置 XML<br>责任人：预研SE</span></div></foreignObject></g></g><g transform="translate(1759.5156478881836, 154.16666793823242)" data-id="S1C" data-node="true" id="flowchart-S1C-325" class="node default default flowchart-label"><rect height="83" width="264.875" y="-41.5" x="-132.4375" ry="0" rx="0" style="" class="basic label-container"></rect><g transform="translate(-124.9375, -34)" style="" class="label"><rect></rect><foreignObject height="68" width="249.875"><div style="display: inline-block; white-space: nowrap;" xmlns="http://www.w3.org/1999/xhtml"><span class="nodeLabel">确认频点库文件<br>（AtvData/DtvData/satellite .db）<br>责任人：各模块Owner</span></div></foreignObject></g></g><g transform="translate(2076.880226135254, 154.16666793823242)" data-id="S1D" data-node="true" id="flowchart-S1D-326" class="node default default flowchart-label"><rect height="83" width="269.8541717529297" y="-41.5" x="-134.92708587646484" ry="0" rx="0" style="" class="basic label-container"></rect><g transform="translate(-127.42708587646484, -34)" style="" class="label"><rect></rect><foreignObject height="68" width="254.8541717529297"><div style="display: inline-block; white-space: nowrap;" xmlns="http://www.w3.org/1999/xhtml"><span class="nodeLabel">获取参考机芯配置<br>（同SoC历史 preburn_config.json）<br>责任人：产品SE</span></div></foreignObject></g></g><g transform="translate(1632.3489799499512, 18.83333396911621)" data-id="START" data-node="true" id="flowchart-START-322" class="node default default flowchart-label"><rect height="37.66666793823242" width="127" y="-18.83333396911621" x="-63.5" ry="0" rx="0" style="" class="basic label-container"></rect><g transform="translate(-56, -11.333333969116211)" style="" class="label"><rect></rect><foreignObject height="22.666667938232422" width="112"><div style="display: inline-block; white-space: nowrap;" xmlns="http://www.w3.org/1999/xhtml"><span class="nodeLabel">新机型立项启动</span></div></foreignObject></g></g></g></g></g></svg>