<svg aria-roledescription="flowchart-v2" role="graphics-document document" viewBox="-7.5 -7.999998092651367 1912.3228759765625 814.666748046875" style="max-width: 1912.3228759765625px;" xmlns="http://www.w3.org/2000/svg" width="100%" id="graphDiv"><style>#graphDiv{font-family:"trebuchet ms",verdana,arial,sans-serif;font-size:16px;fill:#333;}#graphDiv .error-icon{fill:#552222;}#graphDiv .error-text{fill:#552222;stroke:#552222;}#graphDiv .edge-thickness-normal{stroke-width:2px;}#graphDiv .edge-thickness-thick{stroke-width:3.5px;}#graphDiv .edge-pattern-solid{stroke-dasharray:0;}#graphDiv .edge-pattern-dashed{stroke-dasharray:3;}#graphDiv .edge-pattern-dotted{stroke-dasharray:2;}#graphDiv .marker{fill:#333333;stroke:#333333;}#graphDiv .marker.cross{stroke:#333333;}#graphDiv svg{font-family:"trebuchet ms",verdana,arial,sans-serif;font-size:16px;}#graphDiv .label{font-family:"trebuchet ms",verdana,arial,sans-serif;color:#333;}#graphDiv .cluster-label text{fill:#333;}#graphDiv .cluster-label span,#graphDiv p{color:#333;}#graphDiv .label text,#graphDiv span,#graphDiv p{fill:#333;color:#333;}#graphDiv .node rect,#graphDiv .node circle,#graphDiv .node ellipse,#graphDiv .node polygon,#graphDiv .node path{fill:#ECECFF;stroke:#9370DB;stroke-width:1px;}#graphDiv .flowchart-label text{text-anchor:middle;}#graphDiv .node .katex path{fill:#000;stroke:#000;stroke-width:1px;}#graphDiv .node .label{text-align:center;}#graphDiv .node.clickable{cursor:pointer;}#graphDiv .arrowheadPath{fill:#333333;}#graphDiv .edgePath .path{stroke:#333333;stroke-width:2.0px;}#graphDiv .flowchart-link{stroke:#333333;fill:none;}#graphDiv .edgeLabel{background-color:#e8e8e8;text-align:center;}#graphDiv .edgeLabel rect{opacity:0.5;background-color:#e8e8e8;fill:#e8e8e8;}#graphDiv .labelBkg{background-color:rgba(232, 232, 232, 0.5);}#graphDiv .cluster rect{fill:#ffffde;stroke:#aaaa33;stroke-width:1px;}#graphDiv .cluster text{fill:#333;}#graphDiv .cluster span,#graphDiv p{color:#333;}#graphDiv div.mermaidTooltip{position:absolute;text-align:center;max-width:200px;padding:2px;font-family:"trebuchet ms",verdana,arial,sans-serif;font-size:12px;background:hsl(80, 100%, 96.2745098039%);border:1px solid #aaaa33;border-radius:2px;pointer-events:none;z-index:100;}#graphDiv .flowchartTitleText{text-anchor:middle;font-size:18px;fill:#333;}#graphDiv :root{--mermaid-font-family:"trebuchet ms",verdana,arial,sans-serif;}</style><g><marker orient="auto" markerHeight="12" markerWidth="12" markerUnits="userSpaceOnUse" refY="5" refX="6" viewBox="0 0 10 10" class="marker flowchart" id="graphDiv_flowchart-pointEnd"><path style="stroke-width: 1; stroke-dasharray: 1, 0;" class="arrowMarkerPath" d="M 0 0 L 10 5 L 0 10 z"></path></marker><marker orient="auto" markerHeight="12" markerWidth="12" markerUnits="userSpaceOnUse" refY="5" refX="4.5" viewBox="0 0 10 10" class="marker flowchart" id="graphDiv_flowchart-pointStart"><path style="stroke-width: 1; stroke-dasharray: 1, 0;" class="arrowMarkerPath" d="M 0 5 L 10 10 L 10 0 z"></path></marker><marker orient="auto" markerHeight="11" markerWidth="11" markerUnits="userSpaceOnUse" refY="5" refX="11" viewBox="0 0 10 10" class="marker flowchart" id="graphDiv_flowchart-circleEnd"><circle style="stroke-width: 1; stroke-dasharray: 1, 0;" class="arrowMarkerPath" r="5" cy="5" cx="5"></circle></marker><marker orient="auto" markerHeight="11" markerWidth="11" markerUnits="userSpaceOnUse" refY="5" refX="-1" viewBox="0 0 10 10" class="marker flowchart" id="graphDiv_flowchart-circleStart"><circle style="stroke-width: 1; stroke-dasharray: 1, 0;" class="arrowMarkerPath" r="5" cy="5" cx="5"></circle></marker><marker orient="auto" markerHeight="11" markerWidth="11" markerUnits="userSpaceOnUse" refY="5.2" refX="12" viewBox="0 0 11 11" class="marker cross flowchart" id="graphDiv_flowchart-crossEnd"><path style="stroke-width: 2; stroke-dasharray: 1, 0;" class="arrowMarkerPath" d="M 1,1 l 9,9 M 10,1 l -9,9"></path></marker><marker orient="auto" markerHeight="11" markerWidth="11" markerUnits="userSpaceOnUse" refY="5.2" refX="-1" viewBox="0 0 11 11" class="marker cross flowchart" id="graphDiv_flowchart-crossStart"><path style="stroke-width: 2; stroke-dasharray: 1, 0;" class="arrowMarkerPath" d="M 1,1 l 9,9 M 10,1 l -9,9"></path></marker><g class="root"><g class="clusters"></g><g class="edgePaths"><path marker-end="url(#graphDiv_flowchart-pointEnd)" style="fill:none;" class="edge-thickness-normal edge-pattern-solid flowchart-link LS-START LE-P1" id="L-START-P1-0" d="M1327.427,60.333L1327.427,64.5C1327.427,68.667,1327.427,77,1327.427,84.45C1327.427,91.9,1327.427,98.467,1327.427,101.75L1327.427,105.033"></path><path marker-end="url(#graphDiv_flowchart-pointEnd)" style="fill:none;" class="edge-thickness-normal edge-pattern-solid flowchart-link LS-P1 LE-P1F" id="L-P1-P1F-0" d="M1327.427,240.667L1327.427,244.833C1327.427,249,1327.427,257.333,1327.427,264.978C1327.427,272.622,1327.427,279.578,1327.427,283.056L1327.427,286.533"></path><path marker-end="url(#graphDiv_flowchart-pointEnd)" style="fill:none;" class="edge-thickness-normal edge-pattern-solid flowchart-link LS-P1F LE-P3" id="L-P1F-P3-0" d="M1327.427,422.167L1327.427,428.417C1327.427,434.667,1327.427,447.167,1326.511,459.931C1325.594,472.695,1323.761,485.723,1322.844,492.238L1321.928,498.752"></path><path marker-end="url(#graphDiv_flowchart-pointEnd)" style="fill:none;" class="edge-thickness-normal edge-pattern-solid flowchart-link LS-P3 LE-P5" id="L-P3-P5-0" d="M1313.427,614.333L1313.427,619.833C1313.427,625.333,1313.427,636.333,1291.493,645.841C1269.558,655.349,1225.689,663.365,1203.755,667.373L1181.82,671.381"></path><path marker-end="url(#graphDiv_flowchart-pointEnd)" style="fill:none;" class="edge-thickness-normal edge-pattern-solid flowchart-link LS-P5 LE-P6" id="L-P5-P6-0" d="M422.502,672.333L395.563,668.167C368.623,664,314.744,655.667,287.804,636.806C260.865,617.944,260.865,588.556,260.865,557.278C260.865,526,260.865,492.833,260.865,459.139C260.865,425.444,260.865,391.222,260.865,358.889C260.865,326.556,260.865,296.111,268.026,277.133C275.188,258.154,289.511,250.641,296.673,246.885L303.835,243.128"></path><path marker-end="url(#graphDiv_flowchart-pointEnd)" style="fill:none;" class="edge-thickness-normal edge-pattern-solid flowchart-link LS-P6 LE-P6_DECISION" id="L-P6-P6_DECISION-0" d="M544.004,240.667L551.116,244.833C558.229,249,572.453,257.333,579.565,264.783C586.677,272.233,586.677,278.8,586.677,282.083L586.677,285.367"></path><path marker-end="url(#graphDiv_flowchart-pointEnd)" style="fill:none;" class="edge-thickness-normal edge-pattern-solid flowchart-link LS-P6_DECISION LE-P3" id="L-P6_DECISION-P3-0" d="M653.01,377.724L696.724,391.381C740.438,405.038,827.865,432.352,913.19,456.409C998.515,480.465,1081.739,501.264,1123.351,511.664L1164.962,522.063"></path><path marker-end="url(#graphDiv_flowchart-pointEnd)" style="fill:none;" class="edge-thickness-normal edge-pattern-solid flowchart-link LS-P6_DECISION LE-P7" id="L-P6_DECISION-P7-0" d="M575.047,423.333L573.986,429.389C572.924,435.444,570.8,447.556,569.739,458.783C568.677,470.011,568.677,480.356,568.677,485.528L568.677,490.7"></path></g><g class="edgeLabels"><g class="edgeLabel"><g transform="translate(0, 0)" class="label"><foreignObject height="0" width="0"><div style="display: inline-block; white-space: nowrap;" xmlns="http://www.w3.org/1999/xhtml"><span class="edgeLabel"></span></div></foreignObject></g></g><g class="edgeLabel"><g transform="translate(0, 0)" class="label"><foreignObject height="0" width="0"><div style="display: inline-block; white-space: nowrap;" xmlns="http://www.w3.org/1999/xhtml"><span class="edgeLabel"></span></div></foreignObject></g></g><g class="edgeLabel"><g transform="translate(0, 0)" class="label"><foreignObject height="0" width="0"><div style="display: inline-block; white-space: nowrap;" xmlns="http://www.w3.org/1999/xhtml"><span class="edgeLabel"></span></div></foreignObject></g></g><g class="edgeLabel"><g transform="translate(0, 0)" class="label"><foreignObject height="0" width="0"><div style="display: inline-block; white-space: nowrap;" xmlns="http://www.w3.org/1999/xhtml"><span class="edgeLabel"></span></div></foreignObject></g></g><g class="edgeLabel"><g transform="translate(0, 0)" class="label"><foreignObject height="0" width="0"><div style="display: inline-block; white-space: nowrap;" xmlns="http://www.w3.org/1999/xhtml"><span class="edgeLabel"></span></div></foreignObject></g></g><g class="edgeLabel"><g transform="translate(0, 0)" class="label"><foreignObject height="0" width="0"><div style="display: inline-block; white-space: nowrap;" xmlns="http://www.w3.org/1999/xhtml"><span class="edgeLabel"></span></div></foreignObject></g></g><g transform="translate(915.2916679382324, 459.6666660308838)" class="edgeLabel"><g transform="translate(-8, -11.333333969116211)" class="label"><foreignObject height="22.666667938232422" width="16"><div style="display: inline-block; white-space: nowrap;" xmlns="http://www.w3.org/1999/xhtml"><span class="edgeLabel">否</span></div></foreignObject></g></g><g transform="translate(568.6770935058594, 459.6666660308838)" class="edgeLabel"><g transform="translate(-8, -11.333333969116211)" class="label"><foreignObject height="22.666667938232422" width="16"><div style="display: inline-block; white-space: nowrap;" xmlns="http://www.w3.org/1999/xhtml"><span class="edgeLabel">是</span></div></foreignObject></g></g></g><g class="nodes"><g transform="translate(288.3645935058594, 488)" class="root"><g class="clusters"><g id="P7" class="cluster default flowchart-label"><rect height="126.33333206176758" width="545.625" y="8" x="8" ry="0" rx="0" style=""></rect><g transform="translate(239.26041412353516, 8)" class="cluster-label"><foreignObject height="22.666667938232422" width="83.10417175292969"><div style="display: inline-block; white-space: nowrap;" xmlns="http://www.w3.org/1999/xhtml"><span class="nodeLabel">5. 工厂抄写</span></div></foreignObject></g></g></g><g class="edgePaths"><path marker-end="url(#graphDiv_flowchart-pointEnd)" style="fill:none;" class="edge-thickness-normal edge-pattern-solid flowchart-link LS-P7A LE-P7B" id="L-P7A-P7B-0" d="M367.625,71.167L371.792,71.167C375.958,71.167,384.292,71.167,391.742,71.167C399.192,71.167,405.758,71.167,409.042,71.167L412.325,71.167"></path></g><g class="edgeLabels"><g class="edgeLabel"><g transform="translate(0, 0)" class="label"><foreignObject height="0" width="0"><div style="display: inline-block; white-space: nowrap;" xmlns="http://www.w3.org/1999/xhtml"><span class="edgeLabel"></span></div></foreignObject></g></g></g><g class="nodes"><g transform="translate(473.125, 71.16666603088379)" data-id="P7B" data-node="true" id="flowchart-P7B-67" class="node default default flowchart-label"><rect height="37.66666793823242" width="111" y="-18.83333396911621" x="-55.5" ry="0" rx="0" style="" class="basic label-container"></rect><g transform="translate(-48, -11.333333969116211)" style="" class="label"><rect></rect><foreignObject height="22.666667938232422" width="96"><div style="display: inline-block; white-space: nowrap;" xmlns="http://www.w3.org/1999/xhtml"><span class="nodeLabel">工厂生产测试</span></div></foreignObject></g></g><g transform="translate(200.3125, 71.16666603088379)" data-id="P7A" data-node="true" id="flowchart-P7A-66" class="node default default flowchart-label"><rect height="56.333335876464844" width="334.625" y="-28.166667938232422" x="-167.3125" ry="0" rx="0" style="" class="basic label-container"></rect><g transform="translate(-159.8125, -20.666667938232422)" style="" class="label"><rect></rect><foreignObject height="41.333335876464844" width="319.625"><div style="display: inline-block; white-space: nowrap;" xmlns="http://www.w3.org/1999/xhtml"><span class="nodeLabel">USB升级烧录<br>mmc erase → fatload → mmc write → reset</span></div></foreignObject></g></g></g></g><g transform="translate(-7.5, 102.33333206176758)" class="root"><g class="clusters"><g id="P6" class="cluster default flowchart-label"><rect height="130.33333206176758" width="865.5416641235352" y="8" x="8" ry="0" rx="0" style=""></rect><g transform="translate(415.21874809265137, 8)" class="cluster-label"><foreignObject height="22.666667938232422" width="51.10416793823242"><div style="display: inline-block; white-space: nowrap;" xmlns="http://www.w3.org/1999/xhtml"><span class="nodeLabel">4. 验证</span></div></foreignObject></g></g></g><g class="edgePaths"><path marker-end="url(#graphDiv_flowchart-pointEnd)" style="fill:none;" class="edge-thickness-normal edge-pattern-solid flowchart-link LS-P6A LE-P6B" id="L-P6A-P6B-0" d="M135.188,73.167L139.354,73.167C143.521,73.167,151.854,73.167,159.304,73.167C166.754,73.167,173.321,73.167,176.604,73.167L179.888,73.167"></path><path marker-end="url(#graphDiv_flowchart-pointEnd)" style="fill:none;" class="edge-thickness-normal edge-pattern-solid flowchart-link LS-P6B LE-P6C" id="L-P6B-P6C-0" d="M296.188,73.167L300.354,73.167C304.521,73.167,312.854,73.167,320.304,73.167C327.754,73.167,334.321,73.167,337.604,73.167L340.888,73.167"></path><path marker-end="url(#graphDiv_flowchart-pointEnd)" style="fill:none;" class="edge-thickness-normal edge-pattern-solid flowchart-link LS-P6C LE-P6D" id="L-P6C-P6D-0" d="M461.542,73.167L465.708,73.167C469.875,73.167,478.208,73.167,485.658,73.167C493.108,73.167,499.675,73.167,502.958,73.167L506.242,73.167"></path><path marker-end="url(#graphDiv_flowchart-pointEnd)" style="fill:none;" class="edge-thickness-normal edge-pattern-solid flowchart-link LS-P6D LE-P6E" id="L-P6D-P6E-0" d="M590.542,73.167L594.708,73.167C598.875,73.167,607.208,73.167,614.658,73.167C622.108,73.167,628.675,73.167,631.958,73.167L635.242,73.167"></path><path marker-end="url(#graphDiv_flowchart-pointEnd)" style="fill:none;" class="edge-thickness-normal edge-pattern-solid flowchart-link LS-P6E LE-P6F" id="L-P6E-P6F-0" d="M719.542,73.167L723.708,73.167C727.875,73.167,736.208,73.167,743.658,73.167C751.108,73.167,757.675,73.167,760.958,73.167L764.242,73.167"></path></g><g class="edgeLabels"><g class="edgeLabel"><g transform="translate(0, 0)" class="label"><foreignObject height="0" width="0"><div style="display: inline-block; white-space: nowrap;" xmlns="http://www.w3.org/1999/xhtml"><span class="edgeLabel"></span></div></foreignObject></g></g><g class="edgeLabel"><g transform="translate(0, 0)" class="label"><foreignObject height="0" width="0"><div style="display: inline-block; white-space: nowrap;" xmlns="http://www.w3.org/1999/xhtml"><span class="edgeLabel"></span></div></foreignObject></g></g><g class="edgeLabel"><g transform="translate(0, 0)" class="label"><foreignObject height="0" width="0"><div style="display: inline-block; white-space: nowrap;" xmlns="http://www.w3.org/1999/xhtml"><span class="edgeLabel"></span></div></foreignObject></g></g><g class="edgeLabel"><g transform="translate(0, 0)" class="label"><foreignObject height="0" width="0"><div style="display: inline-block; white-space: nowrap;" xmlns="http://www.w3.org/1999/xhtml"><span class="edgeLabel"></span></div></foreignObject></g></g><g class="edgeLabel"><g transform="translate(0, 0)" class="label"><foreignObject height="0" width="0"><div style="display: inline-block; white-space: nowrap;" xmlns="http://www.w3.org/1999/xhtml"><span class="edgeLabel"></span></div></foreignObject></g></g></g><g class="nodes"><g transform="translate(809.0416641235352, 73.16666603088379)" data-id="P6F" data-node="true" id="flowchart-P6F-64" class="node default default flowchart-label"><rect height="60.333335876464844" width="79" y="-30.166667938232422" x="-39.5" ry="0" rx="0" style="" class="basic label-container"></rect><g transform="translate(-32, -22.666667938232422)" style="" class="label"><rect></rect><foreignObject height="45.333335876464844" width="64"><div style="display: inline-block; white-space: nowrap;" xmlns="http://www.w3.org/1999/xhtml"><span class="nodeLabel">画质参数<br>（SQA）</span></div></foreignObject></g></g><g transform="translate(84.09375, 73.16666603088379)" data-id="P6A" data-node="true" id="flowchart-P6A-59" class="node default default flowchart-label"><rect height="60.333335876464844" width="102.1875" y="-30.166667938232422" x="-51.09375" ry="0" rx="0" style="" class="basic label-container"></rect><g transform="translate(-43.59375, -22.666667938232422)" style="" class="label"><rect></rect><foreignObject height="45.333335876464844" width="87.1875"><div style="display: inline-block; white-space: nowrap;" xmlns="http://www.w3.org/1999/xhtml"><span class="nodeLabel">PID写入校验<br>（CIE）</span></div></foreignObject></g></g><g transform="translate(240.6875, 73.16666603088379)" data-id="P6B" data-node="true" id="flowchart-P6B-60" class="node default default flowchart-label"><rect height="60.333335876464844" width="111" y="-30.166667938232422" x="-55.5" ry="0" rx="0" style="" class="basic label-container"></rect><g transform="translate(-48, -22.666667938232422)" style="" class="label"><rect></rect><foreignObject height="45.333335876464844" width="96"><div style="display: inline-block; white-space: nowrap;" xmlns="http://www.w3.org/1999/xhtml"><span class="nodeLabel">频点库完整性<br>（CIE）</span></div></foreignObject></g></g><g transform="translate(403.8645820617676, 73.16666603088379)" data-id="P6C" data-node="true" id="flowchart-P6C-61" class="node default default flowchart-label"><rect height="60.333335876464844" width="115.35417175292969" y="-30.166667938232422" x="-57.677085876464844" ry="0" rx="0" style="" class="basic label-container"></rect><g transform="translate(-50.177085876464844, -22.666667938232422)" style="" class="label"><rect></rect><foreignObject height="45.333335876464844" width="100.35417175292969"><div style="display: inline-block; white-space: nowrap;" xmlns="http://www.w3.org/1999/xhtml"><span class="nodeLabel">内置视频播放<br>（工厂/SQA）</span></div></foreignObject></g></g><g transform="translate(551.0416641235352, 73.16666603088379)" data-id="P6D" data-node="true" id="flowchart-P6D-62" class="node default default flowchart-label"><rect height="60.333335876464844" width="79" y="-30.166667938232422" x="-39.5" ry="0" rx="0" style="" class="basic label-container"></rect><g transform="translate(-32, -22.666667938232422)" style="" class="label"><rect></rect><foreignObject height="45.333335876464844" width="64"><div style="display: inline-block; white-space: nowrap;" xmlns="http://www.w3.org/1999/xhtml"><span class="nodeLabel">开机速度<br>（SQA）</span></div></foreignObject></g></g><g transform="translate(680.0416641235352, 73.16666603088379)" data-id="P6E" data-node="true" id="flowchart-P6E-63" class="node default default flowchart-label"><rect height="60.333335876464844" width="79" y="-30.166667938232422" x="-39.5" ry="0" rx="0" style="" class="basic label-container"></rect><g transform="translate(-32, -22.666667938232422)" style="" class="label"><rect></rect><foreignObject height="45.333335876464844" width="64"><div style="display: inline-block; white-space: nowrap;" xmlns="http://www.w3.org/1999/xhtml"><span class="nodeLabel">搜台测试<br>（工厂）</span></div></foreignObject></g></g></g></g><g transform="translate(393.30210876464844, 664.3333435058594)" class="root"><g class="clusters"><g id="P5" class="cluster default flowchart-label"><rect height="126.33333206176758" width="860.2083435058594" y="8" x="8" ry="0" rx="0" style=""></rect><g transform="translate(396.55208587646484, 8)" class="cluster-label"><foreignObject height="22.666667938232422" width="83.10417175292969"><div style="display: inline-block; white-space: nowrap;" xmlns="http://www.w3.org/1999/xhtml"><span class="nodeLabel">3. 编译产物</span></div></foreignObject></g></g></g><g class="edgePaths"><path marker-end="url(#graphDiv_flowchart-pointEnd)" style="fill:none;" class="edge-thickness-normal edge-pattern-solid flowchart-link LS-P5A LE-P5B" id="L-P5A-P5B-0" d="M266.938,71.167L271.104,71.167C275.271,71.167,283.604,71.167,291.054,71.167C298.504,71.167,305.071,71.167,308.354,71.167L311.638,71.167"></path><path marker-end="url(#graphDiv_flowchart-pointEnd)" style="fill:none;" class="edge-thickness-normal edge-pattern-solid flowchart-link LS-P5B LE-P5C" id="L-P5B-P5C-0" d="M480.542,71.167L484.708,71.167C488.875,71.167,497.208,71.167,504.658,71.167C512.108,71.167,518.675,71.167,521.958,71.167L525.242,71.167"></path><path marker-end="url(#graphDiv_flowchart-pointEnd)" style="fill:none;" class="edge-thickness-normal edge-pattern-solid flowchart-link LS-P5C LE-P5D" id="L-P5C-P5D-0" d="M714.208,71.167L718.375,71.167C722.542,71.167,730.875,71.167,738.325,71.167C745.775,71.167,752.342,71.167,755.625,71.167L758.908,71.167"></path></g><g class="edgeLabels"><g class="edgeLabel"><g transform="translate(0, 0)" class="label"><foreignObject height="0" width="0"><div style="display: inline-block; white-space: nowrap;" xmlns="http://www.w3.org/1999/xhtml"><span class="edgeLabel"></span></div></foreignObject></g></g><g class="edgeLabel"><g transform="translate(0, 0)" class="label"><foreignObject height="0" width="0"><div style="display: inline-block; white-space: nowrap;" xmlns="http://www.w3.org/1999/xhtml"><span class="edgeLabel"></span></div></foreignObject></g></g><g class="edgeLabel"><g transform="translate(0, 0)" class="label"><foreignObject height="0" width="0"><div style="display: inline-block; white-space: nowrap;" xmlns="http://www.w3.org/1999/xhtml"><span class="edgeLabel"></span></div></foreignObject></g></g></g><g class="nodes"><g transform="translate(803.7083435058594, 71.16666603088379)" data-id="P5D" data-node="true" id="flowchart-P5D-58" class="node default default flowchart-label"><rect height="56.333335876464844" width="79" y="-28.166667938232422" x="-39.5" ry="0" rx="0" style="" class="basic label-container"></rect><g transform="translate(-32, -20.666667938232422)" style="" class="label"><rect></rect><foreignObject height="41.333335876464844" width="64"><div style="display: inline-block; white-space: nowrap;" xmlns="http://www.w3.org/1999/xhtml"><span class="nodeLabel">校验文件<br>MD5.txt</span></div></foreignObject></g></g><g transform="translate(149.96875, 71.16666603088379)" data-id="P5A" data-node="true" id="flowchart-P5A-55" class="node default default flowchart-label"><rect height="56.333335876464844" width="233.9375" y="-28.166667938232422" x="-116.96875" ry="0" rx="0" style="" class="basic label-container"></rect><g transform="translate(-109.46875, -20.666667938232422)" style="" class="label"><rect></rect><foreignObject height="41.333335876464844" width="218.9375"><div style="display: inline-block; white-space: nowrap;" xmlns="http://www.w3.org/1999/xhtml"><span class="nodeLabel">eMMC镜像压缩包<br>mt9653_GL_U_YCX_PID*.tar.gz</span></div></foreignObject></g></g><g transform="translate(398.73958587646484, 71.16666603088379)" data-id="P5B" data-node="true" id="flowchart-P5B-56" class="node default default flowchart-label"><rect height="52.333335876464844" width="163.6041717529297" y="-26.166667938232422" x="-81.80208587646484" ry="0" rx="0" style="" class="basic label-container"></rect><g transform="translate(-74.30208587646484, -18.666667938232422)" style="" class="label"><rect></rect><foreignObject height="37.333335876464844" width="148.6041717529297"><div style="display: inline-block; white-space: nowrap;" xmlns="http://www.w3.org/1999/xhtml"><span class="nodeLabel">bootloader<br>rom_emmc_boot.bin</span></div></foreignObject></g></g><g transform="translate(622.3750076293945, 71.16666603088379)" data-id="P5C" data-node="true" id="flowchart-P5C-57" class="node default default flowchart-label"><rect height="56.333335876464844" width="183.6666717529297" y="-28.166667938232422" x="-91.83333587646484" ry="0" rx="0" style="" class="basic label-container"></rect><g transform="translate(-84.33333587646484, -20.666667938232422)" style="" class="label"><rect></rect><foreignObject height="41.333335876464844" width="168.6666717529297"><div style="display: inline-block; white-space: nowrap;" xmlns="http://www.w3.org/1999/xhtml"><span class="nodeLabel">USB升级脚本<br>usb_upgrade_emmc.txt</span></div></foreignObject></g></g></g></g><g transform="translate(1162.6041679382324, 496.00000381469727)" class="root"><g class="clusters"><g id="P3" class="cluster default flowchart-label"><rect height="110.33333206176758" width="286.6458282470703" y="8" x="8" ry="0" rx="0" style=""></rect><g transform="translate(109.77082824707031, 8)" class="cluster-label"><foreignObject height="22.666667938232422" width="83.10417175292969"><div style="display: inline-block; white-space: nowrap;" xmlns="http://www.w3.org/1999/xhtml"><span class="nodeLabel">2. 触发编译</span></div></foreignObject></g></g></g><g class="edgePaths"></g><g class="edgeLabels"></g><g class="nodes"><g transform="translate(151.32291412353516, 63.16666603088379)" data-id="P3A" data-node="true" id="flowchart-P3A-54" class="node default default flowchart-label"><rect height="60.333335876464844" width="216.64584350585938" y="-30.166667938232422" x="-108.32292175292969" ry="0" rx="0" style="" class="basic label-container"></rect><g transform="translate(-100.82292175292969, -22.666667938232422)" style="" class="label"><rect></rect><foreignObject height="45.333335876464844" width="201.64584350585938"><div style="display: inline-block; white-space: nowrap;" xmlns="http://www.w3.org/1999/xhtml"><span class="nodeLabel">点击编译 → 流水线自动执行<br>（buildEmmc.sh）</span></div></foreignObject></g></g></g></g><g transform="translate(751.0312767028809, 283.8333320617676)" class="root"><g class="clusters"><g id="P1F" class="cluster default flowchart-label"><rect height="130.33333206176758" width="1137.7916717529297" y="8" x="8" ry="0" rx="0" style=""></rect><g transform="translate(416.89583587646484, 8)" class="cluster-label"><foreignObject height="22.666667938232422" width="320"><div style="display: inline-block; white-space: nowrap;" xmlns="http://www.w3.org/1999/xhtml"><span class="nodeLabel">填写字段（填写时同步核对，不再单独审核）</span></div></foreignObject></g></g></g><g class="edgePaths"><path marker-end="url(#graphDiv_flowchart-pointEnd)" style="fill:none;" class="edge-thickness-normal edge-pattern-solid flowchart-link LS-P1F1 LE-P1F2" id="L-P1F1-P1F2-0" d="M168.396,73.167L172.562,73.167C176.729,73.167,185.062,73.167,192.512,73.167C199.962,73.167,206.529,73.167,209.812,73.167L213.096,73.167"></path><path marker-end="url(#graphDiv_flowchart-pointEnd)" style="fill:none;" class="edge-thickness-normal edge-pattern-solid flowchart-link LS-P1F2 LE-P1F3" id="L-P1F2-P1F3-0" d="M438.188,73.167L442.354,73.167C446.521,73.167,454.854,73.167,462.304,73.167C469.754,73.167,476.321,73.167,479.604,73.167L482.888,73.167"></path><path marker-end="url(#graphDiv_flowchart-pointEnd)" style="fill:none;" class="edge-thickness-normal edge-pattern-solid flowchart-link LS-P1F3 LE-P1F4" id="L-P1F3-P1F4-0" d="M622.375,73.167L626.542,73.167C630.708,73.167,639.042,73.167,646.492,73.167C653.942,73.167,660.508,73.167,663.792,73.167L667.075,73.167"></path><path marker-end="url(#graphDiv_flowchart-pointEnd)" style="fill:none;" class="edge-thickness-normal edge-pattern-solid flowchart-link LS-P1F4 LE-P1F5" id="L-P1F4-P1F5-0" d="M871.354,73.167L875.521,73.167C879.688,73.167,888.021,73.167,895.471,73.167C902.921,73.167,909.488,73.167,912.771,73.167L916.054,73.167"></path></g><g class="edgeLabels"><g class="edgeLabel"><g transform="translate(0, 0)" class="label"><foreignObject height="0" width="0"><div style="display: inline-block; white-space: nowrap;" xmlns="http://www.w3.org/1999/xhtml"><span class="edgeLabel"></span></div></foreignObject></g></g><g class="edgeLabel"><g transform="translate(0, 0)" class="label"><foreignObject height="0" width="0"><div style="display: inline-block; white-space: nowrap;" xmlns="http://www.w3.org/1999/xhtml"><span class="edgeLabel"></span></div></foreignObject></g></g><g class="edgeLabel"><g transform="translate(0, 0)" class="label"><foreignObject height="0" width="0"><div style="display: inline-block; white-space: nowrap;" xmlns="http://www.w3.org/1999/xhtml"><span class="edgeLabel"></span></div></foreignObject></g></g><g class="edgeLabel"><g transform="translate(0, 0)" class="label"><foreignObject height="0" width="0"><div style="display: inline-block; white-space: nowrap;" xmlns="http://www.w3.org/1999/xhtml"><span class="edgeLabel"></span></div></foreignObject></g></g></g><g class="nodes"><g transform="translate(1021.0729217529297, 73.16666603088379)" data-id="P1F5" data-node="true" id="flowchart-P1F5-53" class="node default default flowchart-label"><rect height="60.333335876464844" width="199.4375" y="-30.166667938232422" x="-99.71875" ry="0" rx="0" style="" class="basic label-container"></rect><g transform="translate(-92.21875, -22.666667938232422)" style="" class="label"><rect></rect><foreignObject height="45.333335876464844" width="184.4375"><div style="display: inline-block; white-space: nowrap;" xmlns="http://www.w3.org/1999/xhtml"><span class="nodeLabel">预抄写pid + 内置视频路径<br>（RU=NO_Olympic）</span></div></foreignObject></g></g><g transform="translate(100.69791412353516, 73.16666603088379)" data-id="P1F1" data-node="true" id="flowchart-P1F1-49" class="node default default flowchart-label"><rect height="37.66666793823242" width="135.39583587646484" y="-18.83333396911621" x="-67.69791793823242" ry="0" rx="0" style="" class="basic label-container"></rect><g transform="translate(-60.19791793823242, -11.333333969116211)" style="" class="label"><rect></rect><foreignObject height="22.666667938232422" width="120.39583587646484"><div style="display: inline-block; white-space: nowrap;" xmlns="http://www.w3.org/1999/xhtml"><span class="nodeLabel">版本号/发布路径</span></div></foreignObject></g></g><g transform="translate(328.29166412353516, 73.16666603088379)" data-id="P1F2" data-node="true" id="flowchart-P1F2-50" class="node default default flowchart-label"><rect height="37.66666793823242" width="219.7916717529297" y="-18.83333396911621" x="-109.89583587646484" ry="0" rx="0" style="" class="basic label-container"></rect><g transform="translate(-102.39583587646484, -11.333333969116211)" style="" class="label"><rect></rect><foreignObject height="22.666667938232422" width="204.7916717529297"><div style="display: inline-block; white-space: nowrap;" xmlns="http://www.w3.org/1999/xhtml"><span class="nodeLabel">emmc/机型/尺寸/区域/品牌</span></div></foreignObject></g></g><g transform="translate(555.28125, 73.16666603088379)" data-id="P1F3" data-node="true" id="flowchart-P1F3-51" class="node default default flowchart-label"><rect height="37.66666793823242" width="134.1875" y="-18.83333396911621" x="-67.09375" ry="0" rx="0" style="" class="basic label-container"></rect><g transform="translate(-59.59375, -11.333333969116211)" style="" class="label"><rect></rect><foreignObject height="22.666667938232422" width="119.1875"><div style="display: inline-block; white-space: nowrap;" xmlns="http://www.w3.org/1999/xhtml"><span class="nodeLabel">建议测试量产PID</span></div></foreignObject></g></g><g transform="translate(771.8645858764648, 73.16666603088379)" data-id="P1F4" data-node="true" id="flowchart-P1F4-52" class="node default default flowchart-label"><rect height="60.333335876464844" width="198.9791717529297" y="-30.166667938232422" x="-99.48958587646484" ry="0" rx="0" style="" class="basic label-container"></rect><g transform="translate(-91.98958587646484, -22.666667938232422)" style="" class="label"><rect></rect><foreignObject height="45.333335876464844" width="183.9791717529297"><div style="display: inline-block; white-space: nowrap;" xmlns="http://www.w3.org/1999/xhtml"><span class="nodeLabel">特别注意事项<br>（国家+机型+PID对照表）</span></div></foreignObject></g></g></g></g><g transform="translate(1006.4270896911621, 102.33333206176758)" class="root"><g class="clusters"><g id="P1" class="cluster default flowchart-label"><rect height="130.33333206176758" width="627" y="8" x="8" ry="0" rx="0" style=""></rect><g transform="translate(258.54166412353516, 8)" class="cluster-label"><foreignObject height="22.666667938232422" width="125.91667175292969"><div style="display: inline-block; white-space: nowrap;" xmlns="http://www.w3.org/1999/xhtml"><span class="nodeLabel">1. 创建Jira子任务</span></div></foreignObject></g></g></g><g class="edgePaths"><path marker-end="url(#graphDiv_flowchart-pointEnd)" style="fill:none;" class="edge-thickness-normal edge-pattern-solid flowchart-link LS-P1A LE-P1B" id="L-P1A-P1B-0" d="M192,73.167L196.167,73.167C200.333,73.167,208.667,73.167,216.117,73.167C223.567,73.167,230.133,73.167,233.417,73.167L236.7,73.167"></path><path marker-end="url(#graphDiv_flowchart-pointEnd)" style="fill:none;" class="edge-thickness-normal edge-pattern-solid flowchart-link LS-P1B LE-P1C" id="L-P1B-P1C-0" d="M449,73.167L453.167,73.167C457.333,73.167,465.667,73.167,473.117,73.167C480.567,73.167,487.133,73.167,490.417,73.167L493.7,73.167"></path></g><g class="edgeLabels"><g class="edgeLabel"><g transform="translate(0, 0)" class="label"><foreignObject height="0" width="0"><div style="display: inline-block; white-space: nowrap;" xmlns="http://www.w3.org/1999/xhtml"><span class="edgeLabel"></span></div></foreignObject></g></g><g class="edgeLabel"><g transform="translate(0, 0)" class="label"><foreignObject height="0" width="0"><div style="display: inline-block; white-space: nowrap;" xmlns="http://www.w3.org/1999/xhtml"><span class="edgeLabel"></span></div></foreignObject></g></g></g><g class="nodes"><g transform="translate(554.5, 73.16666603088379)" data-id="P1C" data-node="true" id="flowchart-P1C-48" class="node default default flowchart-label"><rect height="37.66666793823242" width="111" y="-18.83333396911621" x="-55.5" ry="0" rx="0" style="" class="basic label-container"></rect><g transform="translate(-48, -11.333333969116211)" style="" class="label"><rect></rect><foreignObject height="22.666667938232422" width="96"><div style="display: inline-block; white-space: nowrap;" xmlns="http://www.w3.org/1999/xhtml"><span class="nodeLabel">填写配置字段</span></div></foreignObject></g></g><g transform="translate(112.5, 73.16666603088379)" data-id="P1A" data-node="true" id="flowchart-P1A-46" class="node default default flowchart-label"><rect height="37.66666793823242" width="159" y="-18.83333396911621" x="-79.5" ry="0" rx="0" style="" class="basic label-container"></rect><g transform="translate(-72, -11.333333969116211)" style="" class="label"><rect></rect><foreignObject height="22.666667938232422" width="144"><div style="display: inline-block; white-space: nowrap;" xmlns="http://www.w3.org/1999/xhtml"><span class="nodeLabel">查询父版本集成任务</span></div></foreignObject></g></g><g transform="translate(345.5, 73.16666603088379)" data-id="P1B" data-node="true" id="flowchart-P1B-47" class="node default default flowchart-label"><rect height="60.333335876464844" width="207" y="-30.166667938232422" x="-103.5" ry="0" rx="0" style="" class="basic label-container"></rect><g transform="translate(-96, -22.666667938232422)" style="" class="label"><rect></rect><foreignObject height="45.333335876464844" width="192"><div style="display: inline-block; white-space: nowrap;" xmlns="http://www.w3.org/1999/xhtml"><span class="nodeLabel">创建预抄写集成测试子任务<br>（问题类型ID=14305）</span></div></foreignObject></g></g></g></g><g transform="translate(1327.427089691162, 30.16666603088379)" data-id="START" data-node="true" id="flowchart-START-45" class="node default default flowchart-label"><rect height="60.333335876464844" width="168.2291717529297" y="-30.166667938232422" x="-84.11458587646484" ry="0" rx="0" style="" class="basic label-container"></rect><g transform="translate(-76.61458587646484, -22.666667938232422)" style="" class="label"><rect></rect><foreignObject height="45.333335876464844" width="153.2291717529297"><div style="display: inline-block; white-space: nowrap;" xmlns="http://www.w3.org/1999/xhtml"><span class="nodeLabel">收到提测清单<br>（PID列表 + 版本号）</span></div></foreignObject></g></g><g transform="translate(586.6770935058594, 356.99999618530273)" data-id="P6_DECISION" data-node="true" id="flowchart-P6_DECISION-65" class="node default default flowchart-label"><polygon style="" transform="translate(-66.33333396911621,66.33333396911621)" class="label-container" points="66.33333396911621,0 132.66666793823242,-66.33333396911621 66.33333396911621,-132.66666793823242 0,-66.33333396911621"></polygon><g transform="translate(-40, -11.333333969116211)" style="" class="label"><rect></rect><foreignObject height="22.666667938232422" width="80"><div style="display: inline-block; white-space: nowrap;" xmlns="http://www.w3.org/1999/xhtml"><span class="nodeLabel">验证通过？</span></div></foreignObject></g></g></g></g></g></svg>